<?xml version="1.0" encoding="utf-8"?>
<!-- Generator: Adobe Illustrator 24.0.3, SVG Export Plug-In . SVG Version: 6.00 Build 0)  -->
<svg version="1.1" id="Layer_1" xmlns="http://www.w3.org/2000/svg" xmlns:xlink="http://www.w3.org/1999/xlink" x="0px" y="0px"
	 viewBox="0 0 566.9 369.5" style="enable-background:new 0 0 566.9 369.5;" xml:space="preserve">
<style type="text/css">
	.st0{fill:#152F8A;}
	.st1{fill:#FFFFFF;}
	.st2{fill:#C0171B;}
</style>
<g id="Ebene_23">
	<rect class="st0" width="566.9" height="369.5"/>
	<polygon class="st1" points="56.8,369.5 233.7,251.2 233.7,369.5 343.4,369.5 343.4,256 513.1,369.5 566.9,369.5 566.9,337.3 
		420.8,239.6 566.9,239.6 566.9,129.9 415,129.9 566.9,28.3 566.9,0 507.3,0 343.4,109.6 343.4,0 233.7,0 233.7,114.5 62.6,0 0,0 
		0,26.3 154.9,129.9 0,129.9 0,239.6 149.1,239.6 0,339.3 0,368.6 0.6,369.5 	"/>
	<polygon class="st2" points="566.9,149.9 323.4,149.9 323.4,0 253.7,0 253.7,149.9 0,149.9 0,219.6 253.7,219.6 253.7,369.5 
		323.4,369.5 323.4,219.6 566.9,219.6 	"/>
</g>
</svg>
