<svg xmlns="http://www.w3.org/2000/svg" viewBox="0 0 566.93 566.93"><defs><style>.cls-1{fill:#004968;}.cls-2{fill:#54bbba;}.cls-3{fill:#f3d300;}.cls-4{fill:#fff;}</style></defs><g id="Ebene_26" data-name="Ebene 26"><path class="cls-1" d="M409.35,189.1c19.5,1.62,150.18.07,150.18.07C583,87,543.12,87,543.12,87H376.33Z"/><path class="cls-2" d="M543.12,87H247.91s-94.69,70.7-85.86,193.44,92.67,81.75,46.58,192.17c-41.55,99.55-69,94.28-69,94.28H469.92s75.85-81.36,0-228.81C400.28,202.71,543.12,87,543.12,87Z"/><path class="cls-1" d="M469.92,566.88s-63.1-17.47-26.1-85.48H120.2s-31.08,85.48,19.39,85.48Z"/><path class="cls-1" d="M67.68,9.85s171.07,156,198.59,203.26c24.1,41.35,24.06,96.21,24.06,96.21Z"/><path class="cls-1" d="M63.15,3.46s97.9,213.26,130.89,252c30.66,36,89.42,44.72,89.42,44.72Z"/><path class="cls-3" d="M61-.45,77.07,19.8l16,20.31,32,40.63L157,121.49l31.68,40.89C199.19,176,210,189.49,220.66,203s21,27.35,30.93,41.44,19.65,28.35,29.1,42.81,18.66,29.09,27.22,44.2l-1.2.9c-12-12.55-23.37-25.59-34.52-38.78s-22-26.6-32.63-40.17-20.9-27.43-30.81-41.54-19.7-28.32-29.73-42.34L149,127.45,119.09,85.22,89.37,42.87,74.52,21.69,59.75.45Z"/><polygon class="cls-2" points="259.16 177.5 256.41 238.04 268.33 182.09 259.16 177.5"/><polygon class="cls-4" points="110.73 135.08 149.71 136.23 99.11 113.76 110.73 135.08"/></g></svg>