<?xml version="1.0" encoding="utf-8"?><svg xmlns="http://www.w3.org/2000/svg" viewBox="0 0 560.35 281.15"><defs><style>.cls-1{fill:#e4e4e4;}.cls-2{fill:#f4f4f4;}.cls-3{fill:#d6d6d6;}.cls-4{fill:#aaa;}</style></defs><g id="Ebene_3" data-name="Ebene 3"><path class="cls-1" d="M206.05,13.12a11.3,11.3,0,0,1-.48,3.46,8.43,8.43,0,0,1-1.35,2.54,7,7,0,0,1-2,1.73,10,10,0,0,1-2.34,1V22a8.21,8.21,0,0,1,2.78,1,9,9,0,0,1,2.25,1.91,9.46,9.46,0,0,1,1.53,2.72,9.82,9.82,0,0,1,.58,3.44,10.9,10.9,0,0,1-.76,4.11,8.58,8.58,0,0,1-2.4,3.24,11.83,11.83,0,0,1-4.09,2.15,20.33,20.33,0,0,1-5.87.77h-7.75V3.44h7.32a21.2,21.2,0,0,1,5.73.69,10.92,10.92,0,0,1,3.92,2,7.09,7.09,0,0,1,2.22,3.05,11.11,11.11,0,0,1,.68,4m-4.82.16a5.6,5.6,0,0,0-1.86-4.34c-1.26-1.14-3.21-1.7-5.87-1.7H191V20.31h2.48a8.09,8.09,0,0,0,5.8-1.88,6.65,6.65,0,0,0,2-5.15M202,30.72a6.19,6.19,0,0,0-2-4.85,8.39,8.39,0,0,0-5.75-1.78H191V37.37h3c2.81,0,4.86-.56,6.12-1.68a6.25,6.25,0,0,0,1.9-5m29.42,10.61H227.3v-3h-.11a4.79,4.79,0,0,1-.71,1,7.4,7.4,0,0,1-1.4,1.21,11.19,11.19,0,0,1-2.05,1,8,8,0,0,1-2.71.43,9.17,9.17,0,0,1-3.15-.52,5.47,5.47,0,0,1-2.38-1.68,7.51,7.51,0,0,1-1.51-3,16.33,16.33,0,0,1-.52-4.52V15h4.45V32c0,2.18.34,3.74,1.06,4.68a3.9,3.9,0,0,0,3.31,1.4,5.35,5.35,0,0,0,3.25-1,11.27,11.27,0,0,0,2.09-1.89V15h4.45m21.17,26.36v-17c0-2.23-.36-3.84-1.12-4.81A4.06,4.06,0,0,0,248,18.11a5.28,5.28,0,0,0-3.3,1A11.75,11.75,0,0,0,242.61,21V41.33h-4.43V15h4v3h.11a5.42,5.42,0,0,1,.72-1,7,7,0,0,1,1.42-1.2,10.07,10.07,0,0,1,2.08-1,8.09,8.09,0,0,1,2.75-.44,8.78,8.78,0,0,1,3.17.53,5.76,5.76,0,0,1,2.43,1.65,8.4,8.4,0,0,1,1.54,3A16.26,16.26,0,0,1,257,24V41.33m5.44-12.79a18.49,18.49,0,0,1,1-6.7,12.13,12.13,0,0,1,2.69-4.34,9.28,9.28,0,0,1,3.73-2.33,12.93,12.93,0,0,1,4.18-.68,10.94,10.94,0,0,1,2.19.18,8.38,8.38,0,0,1,1.54.47V2.52l4.45-.5V41.33h-4.08V38.52h-.1a6.24,6.24,0,0,1-.6.9,5.59,5.59,0,0,1-1.21,1.15,6.79,6.79,0,0,1-1.92,1,8.13,8.13,0,0,1-2.69.41,8.79,8.79,0,0,1-3.55-.74,7.61,7.61,0,0,1-2.93-2.36,12.24,12.24,0,0,1-2-4.18,22.38,22.38,0,0,1-.74-6.16M272.86,38a5.72,5.72,0,0,0,1.86-.28,5.07,5.07,0,0,0,1.42-.69,5.69,5.69,0,0,0,1-.85,5.36,5.36,0,0,0,.63-.77V19.21a5.76,5.76,0,0,0-1.41-.67,6.23,6.23,0,0,0-2-.27,7.63,7.63,0,0,0-2.88.52,5.51,5.51,0,0,0-2.33,1.73,8.71,8.71,0,0,0-1.56,3.14,16.65,16.65,0,0,0-.58,4.7,19,19,0,0,0,.47,4.59,8.38,8.38,0,0,0,1.28,3A4.87,4.87,0,0,0,272.86,38M306,23.87c0,1.14,0,2.11-.11,2.94s-.16,1.53-.22,2.16H292.17c.15,3.1.81,5.39,2,6.87A6.24,6.24,0,0,0,299.31,38a7.19,7.19,0,0,0,2.09-.28A8.68,8.68,0,0,0,303,37.1a7.91,7.91,0,0,0,1.15-.78c.31-.25.54-.45.69-.59l1.64,3.12c-.18.19-.45.45-.83.81a7,7,0,0,1-1.48,1,9.49,9.49,0,0,1-2.31.92,12.26,12.26,0,0,1-3.24.38,11.48,11.48,0,0,1-4.47-.83,8.41,8.41,0,0,1-3.4-2.56,12.13,12.13,0,0,1-2.16-4.38,22.56,22.56,0,0,1-.78-6.39,20.23,20.23,0,0,1,.81-6.07,12,12,0,0,1,2.16-4.2A8.61,8.61,0,0,1,294,15.12a9.44,9.44,0,0,1,3.89-.8,7.58,7.58,0,0,1,5.93,2.38Q306,19.09,306,23.87M297.61,18a4.45,4.45,0,0,0-3.8,2,11,11,0,0,0-1.64,5.71h9.61a7.35,7.35,0,0,0,.09-.79c0-.34,0-.72,0-1.12a7.19,7.19,0,0,0-1.09-4.27A3.66,3.66,0,0,0,297.61,18m25.62,2.36A8.76,8.76,0,0,0,321.65,19a5,5,0,0,0-3-.84,4,4,0,0,0-2.68.81,2.62,2.62,0,0,0-.94,2,3.53,3.53,0,0,0,.87,2.45,11.75,11.75,0,0,0,2.59,2l1.66,1a16.09,16.09,0,0,1,4.21,3.42,7.14,7.14,0,0,1,1.55,4.76,7.16,7.16,0,0,1-2.18,5.26A8.5,8.5,0,0,1,317.47,42a11.15,11.15,0,0,1-2.79-.32,13.66,13.66,0,0,1-2.11-.78,6.65,6.65,0,0,1-1.51-1,10.45,10.45,0,0,1-1-1l2.15-3.51c.21.23.48.49.79.77a7.68,7.68,0,0,0,1.14.85,5.7,5.7,0,0,0,1.47.69,5.82,5.82,0,0,0,1.91.28,4.6,4.6,0,0,0,3-.88,2.69,2.69,0,0,0,1-2.14,4.88,4.88,0,0,0-.25-1.62,3.61,3.61,0,0,0-.74-1.23,5.62,5.62,0,0,0-1.2-1c-.47-.33-1-.71-1.64-1.1L316.1,29a15.72,15.72,0,0,1-3.86-3.35,7,7,0,0,1-1.4-4.5,6.41,6.41,0,0,1,.58-2.72A6,6,0,0,1,313,16.27a7.31,7.31,0,0,1,2.43-1.42,8.26,8.26,0,0,1,3-.53,10,10,0,0,1,2.63.29,8.93,8.93,0,0,1,1.91.78,10,10,0,0,1,1.32.93c.34.31.63.58.84.8m19.77,24.21v-17a9,9,0,0,0-.94-4.67,3.34,3.34,0,0,0-3-1.42,6.45,6.45,0,0,0-1.94.27,7.29,7.29,0,0,0-1.52.68,7.56,7.56,0,0,0-1.15.91c-.32.34-.59.63-.81.88V41.33h-4.45V15h4.05v3h.13a7.72,7.72,0,0,1,.81-1.09,8.28,8.28,0,0,1,1.37-1.2,7.91,7.91,0,0,1,1.93-1,7.62,7.62,0,0,1,2.47-.38c3,0,5.11,1.18,6.36,3.5a8,8,0,0,1,1-1.17,8.43,8.43,0,0,1,1.55-1.15,8.29,8.29,0,0,1,2-.85,8.48,8.48,0,0,1,2.42-.33c5.35,0,8,3.1,8,9.34V41.33h-4.45v-17c0-2.16-.38-3.71-1.16-4.67a4.07,4.07,0,0,0-3.4-1.42,5.19,5.19,0,0,0-3.1.9,13,13,0,0,0-1.95,1.73,11.84,11.84,0,0,1,.16,1.3c0,.45.06.93.06,1.46V41.33m24.92,0h-4.44V15h4.44Zm-2.2-32.72a2.83,2.83,0,0,1-2.18-.88,3.18,3.18,0,0,1-.83-2.31,3.13,3.13,0,0,1,.83-2.25,3.12,3.12,0,0,1,4.34,0,3.2,3.2,0,0,1,.81,2.25,3.25,3.25,0,0,1-.81,2.31,2.84,2.84,0,0,1-2.16.88m23.38,32.72v-17c0-2.23-.36-3.84-1.11-4.81a4.12,4.12,0,0,0-3.45-1.44,5.21,5.21,0,0,0-3.27,1A11.4,11.4,0,0,0,385.54,21V41.33h-4.45V15h4.07v3h.11a5.2,5.2,0,0,1,.7-1,7.5,7.5,0,0,1,1.44-1.2,9.73,9.73,0,0,1,2.07-1,8.15,8.15,0,0,1,2.76-.44,8.82,8.82,0,0,1,3.17.53,5.69,5.69,0,0,1,2.41,1.65,8.45,8.45,0,0,1,1.55,3,16.36,16.36,0,0,1,.54,4.54v17.3m11.1,0h-4.45V15H411Zm-2.2-32.72a2.86,2.86,0,0,1-2.2-.88,3.22,3.22,0,0,1-.82-2.31,3.17,3.17,0,0,1,.82-2.25,3.13,3.13,0,0,1,4.35,0,3.2,3.2,0,0,1,.81,2.25A3.25,3.25,0,0,1,411,7.73a2.83,2.83,0,0,1-2.15.88m20.36,11.7a9.46,9.46,0,0,0-1.6-1.36,4.9,4.9,0,0,0-3-.84,4,4,0,0,0-2.69.81,2.54,2.54,0,0,0-.93,2,3.66,3.66,0,0,0,.84,2.45,12.82,12.82,0,0,0,2.62,2l1.64,1a16.27,16.27,0,0,1,4.23,3.43,7.12,7.12,0,0,1,1.53,4.75,7.11,7.11,0,0,1-2.16,5.26A8.52,8.52,0,0,1,423.41,42a10.6,10.6,0,0,1-2.8-.33,13.58,13.58,0,0,1-2.12-.77,6.68,6.68,0,0,1-1.5-1,8.36,8.36,0,0,1-1-1l2.15-3.51c.21.23.48.49.79.77a6.55,6.55,0,0,0,1.12.85,6,6,0,0,0,1.47.68,5.68,5.68,0,0,0,1.93.29,4.56,4.56,0,0,0,3-.88,2.69,2.69,0,0,0,1-2.14,5,5,0,0,0-.23-1.63,3.57,3.57,0,0,0-.74-1.22,6.7,6.7,0,0,0-1.22-1c-.47-.32-1-.7-1.64-1.09L422,29a15.85,15.85,0,0,1-3.88-3.35,7,7,0,0,1-1.4-4.5,6.17,6.17,0,0,1,2.2-4.85,7.62,7.62,0,0,1,2.45-1.42,8.18,8.18,0,0,1,3-.53,10.16,10.16,0,0,1,2.63.29,8.34,8.34,0,0,1,1.89.78,7.41,7.41,0,0,1,1.31.93c.36.31.64.58.85.8m17.19,1.47H442.5v14.6a7.08,7.08,0,0,0,.72,3.82,2.74,2.74,0,0,0,2.42,1,4.53,4.53,0,0,0,1.69-.28,6.3,6.3,0,0,0,1.05-.49l.59,3.57A6.86,6.86,0,0,1,444.86,42a6.48,6.48,0,0,1-5.09-1.89c-1.14-1.26-1.72-3.35-1.72-6.29V18.59h-3.17V15.64l3.17-.67.51-7.35h3.94V15h6.33m21,8.9c0,1.14,0,2.11-.11,2.94s-.15,1.53-.22,2.16H456.05q.24,4.65,2,6.87A6.26,6.26,0,0,0,463.19,38a7.14,7.14,0,0,0,2.09-.28,7.69,7.69,0,0,0,1.62-.65,7.36,7.36,0,0,0,1.15-.78c.31-.25.54-.45.69-.59l1.65,3.11c-.18.2-.46.45-.83.81a7.06,7.06,0,0,1-1.47,1,9.83,9.83,0,0,1-2.31.92,12.42,12.42,0,0,1-3.24.38,11.45,11.45,0,0,1-4.47-.83,8.43,8.43,0,0,1-3.4-2.56,12,12,0,0,1-2.17-4.38,23,23,0,0,1-.77-6.39,20.94,20.94,0,0,1,.79-6.07,12.57,12.57,0,0,1,2.16-4.2,8.53,8.53,0,0,1,3.19-2.43,9.44,9.44,0,0,1,3.89-.8,7.58,7.58,0,0,1,5.93,2.38c1.44,1.59,2.15,4,2.15,7.17m-8.35-5.93a4.44,4.44,0,0,0-3.78,2,10.9,10.9,0,0,0-1.66,5.71h9.62a5.71,5.71,0,0,0,.08-.79c0-.35,0-.72,0-1.12a7.26,7.26,0,0,0-1.1-4.27,3.7,3.7,0,0,0-3.19-1.5m25.86.92a3.22,3.22,0,0,0-.72-.27,5.68,5.68,0,0,0-1.48-.16,4.57,4.57,0,0,0-3.26,1.12A6.65,6.65,0,0,0,480.21,22V41.33h-4.45V15h4.08v3.57h.1a9.34,9.34,0,0,1,.71-1.51,5.77,5.77,0,0,1,1.09-1.32,5.4,5.4,0,0,1,1.57-.9,6.42,6.42,0,0,1,2.16-.32,5.69,5.69,0,0,1,1.52.16l.9.27m8.29,26.41h-4.44V15h4.44ZM494,8.61a2.84,2.84,0,0,1-2.2-.88A3.18,3.18,0,0,1,491,5.42a3.13,3.13,0,0,1,.83-2.25,2.88,2.88,0,0,1,2.2-.88,2.79,2.79,0,0,1,2.12.88A3.13,3.13,0,0,1,497,5.42a3.18,3.18,0,0,1-.83,2.31,2.75,2.75,0,0,1-2.12.88m27.44,32.72h-4.08v-3h-.1a5.62,5.62,0,0,1-.71,1,7.4,7.4,0,0,1-1.4,1.21,10.4,10.4,0,0,1-2.06,1,8,8,0,0,1-2.7.43,9.21,9.21,0,0,1-3.15-.52,5.67,5.67,0,0,1-2.38-1.68,7.45,7.45,0,0,1-1.51-3,16.68,16.68,0,0,1-.53-4.52V15h4.45v17a8,8,0,0,0,1.07,4.69,3.91,3.91,0,0,0,3.33,1.4,5.25,5.25,0,0,0,3.23-1A10.66,10.66,0,0,0,517,35.17V15h4.45m20.62,26.36v-17a8.79,8.79,0,0,0-.93-4.67,3.31,3.31,0,0,0-3-1.42,6.38,6.38,0,0,0-2,.27,6.57,6.57,0,0,0-1.51.68,6.23,6.23,0,0,0-1.15.91c-.33.34-.62.63-.83.88V41.33h-4.43V15h4v3h.11a8.09,8.09,0,0,1,.83-1.09A7.58,7.58,0,0,1,539,14.32c3,0,5.12,1.17,6.36,3.5a7.6,7.6,0,0,1,1-1.17,8.41,8.41,0,0,1,1.53-1.16,8.68,8.68,0,0,1,2-.84,8.36,8.36,0,0,1,2.41-.33c5.34,0,8,3.1,8,9.34V41.33H555.9v-17c0-2.16-.38-3.71-1.15-4.67a4.15,4.15,0,0,0-3.41-1.42,5.21,5.21,0,0,0-3.1.9,12.4,12.4,0,0,0-1.94,1.73c.07.4.12.83.16,1.3s0,.93,0,1.46V41.33M196.34,73.94H191V96.68h-4.44V73.94h-3.19V71l3.19-.62V65.11a10.08,10.08,0,0,1,.6-3.67,7.41,7.41,0,0,1,1.6-2.54A5.91,5.91,0,0,1,191,57.47a8.94,8.94,0,0,1,2.81-.43,6.77,6.77,0,0,1,2.41.38,9.41,9.41,0,0,1,1.32.61l-.94,3.68a4.39,4.39,0,0,0-.93-.47A4,4,0,0,0,194.2,61a3,3,0,0,0-2.42,1A5.92,5.92,0,0,0,191,65.6v4.72h5.94m22.27,26.36h-4v-3H215a5.79,5.79,0,0,1-.72,1,7.36,7.36,0,0,1-1.39,1.21,10.79,10.79,0,0,1-2.07,1,7.82,7.82,0,0,1-2.69.44A8.93,8.93,0,0,1,205,96.8a5.71,5.71,0,0,1-2.4-1.67,7.91,7.91,0,0,1-1.49-3,16.4,16.4,0,0,1-.52-4.53V70.32H205v17c0,2.18.36,3.75,1.08,4.68a3.88,3.88,0,0,0,3.31,1.41,5.33,5.33,0,0,0,3.25-1,11.6,11.6,0,0,0,2.09-1.89V70.32h4.43m-10.92-7.57a2.77,2.77,0,0,1-.77,2,2.69,2.69,0,0,1-3.73,0,2.8,2.8,0,0,1-.76-2,2.72,2.72,0,0,1,.76-2,2.62,2.62,0,0,1,3.73,0,2.68,2.68,0,0,1,.77,2m8.45,0a2.8,2.8,0,0,1-.76,2,2.71,2.71,0,0,1-3.74,0,2.8,2.8,0,0,1-.76-2,2.72,2.72,0,0,1,.76-2,2.63,2.63,0,0,1,3.74,0,2.72,2.72,0,0,1,.76,2m20.86,11.46a3,3,0,0,0-.72-.27,5.2,5.2,0,0,0-1.47-.16,4.54,4.54,0,0,0-3.26,1.12,6.27,6.27,0,0,0-1.68,2.45V96.68H226V70.32H230v3.57h.13a9.36,9.36,0,0,1,.7-1.52,5.72,5.72,0,0,1,1.1-1.31,4.85,4.85,0,0,1,1.57-.9,6.29,6.29,0,0,1,2.16-.33,6,6,0,0,1,1.51.16c.4.11.69.2.9.28m35-1.81a10.94,10.94,0,0,1-.49,3.46,8.77,8.77,0,0,1-1.35,2.54,6.77,6.77,0,0,1-2,1.73,9.59,9.59,0,0,1-2.32,1v.11a7.9,7.9,0,0,1,2.77,1A8.61,8.61,0,0,1,273.54,83a10,10,0,0,1,.58,3.44,10.59,10.59,0,0,1-.77,4.11A8.42,8.42,0,0,1,271,93.76a11.65,11.65,0,0,1-4.09,2.14,20,20,0,0,1-5.88.78h-7.74V58.79h7.29a21.38,21.38,0,0,1,5.75.68,10.72,10.72,0,0,1,3.91,2,7.17,7.17,0,0,1,2.23,3,10.93,10.93,0,0,1,.69,4m-4.83.17a5.64,5.64,0,0,0-1.87-4.35c-1.25-1.13-3.19-1.69-5.88-1.69H258V75.65h2.47a8.21,8.21,0,0,0,5.82-1.87,6.76,6.76,0,0,0,2-5.15m.7,17.44a6.15,6.15,0,0,0-2-4.85,8.32,8.32,0,0,0-5.73-1.78H258V92.71h3q4.22,0,6.11-1.67a6.31,6.31,0,0,0,1.89-5m15.43,10.61H280V70.32h4.44ZM282.25,64a2.84,2.84,0,0,1-2.2-.88,3.2,3.2,0,0,1-.83-2.31,3.11,3.11,0,0,1,.83-2.25,2.88,2.88,0,0,1,2.2-.89,2.8,2.8,0,0,1,2.12.89,3.11,3.11,0,0,1,.83,2.25,3.2,3.2,0,0,1-.83,2.31,2.75,2.75,0,0,1-2.12.88m13.38,26.56a4.07,4.07,0,0,0,.47,2.3,1.82,1.82,0,0,0,1.62.67,4.1,4.1,0,0,0,1-.11,2.34,2.34,0,0,0,.63-.23l.38,3.29a11,11,0,0,1-1.21.45,8.21,8.21,0,0,1-2.36.27,5,5,0,0,1-3.62-1.37c-.9-.91-1.37-2.54-1.37-4.88v-33l4.45-.51m6.92,26.52a18.3,18.3,0,0,1,1.05-6.7,12.06,12.06,0,0,1,2.68-4.34A9.25,9.25,0,0,1,310,70.52a12.9,12.9,0,0,1,4.18-.69,11.55,11.55,0,0,1,2.18.18,9.69,9.69,0,0,1,1.55.47V57.87l4.45-.51V96.68H318.3V93.87h-.11a6.85,6.85,0,0,1-.6.9,5.93,5.93,0,0,1-1.22,1.15,6.58,6.58,0,0,1-1.91,1,8.2,8.2,0,0,1-2.7.41,8.85,8.85,0,0,1-3.53-.73,7.64,7.64,0,0,1-2.94-2.36,12.14,12.14,0,0,1-2-4.18,22.46,22.46,0,0,1-.74-6.17M313,93.38a5.38,5.38,0,0,0,1.86-.29,5.2,5.2,0,0,0,1.42-.68,5.36,5.36,0,0,0,1-.85,6,6,0,0,0,.63-.77V74.55a6.12,6.12,0,0,0-1.41-.66,6.23,6.23,0,0,0-2-.27,7.67,7.67,0,0,0-2.88.52,5.4,5.4,0,0,0-2.32,1.73A8.51,8.51,0,0,0,307.74,79a16,16,0,0,0-.58,4.7,18.65,18.65,0,0,0,.47,4.6,8.59,8.59,0,0,0,1.28,3,4.88,4.88,0,0,0,1.87,1.62,4.8,4.8,0,0,0,2.2.51m34.63,3.3h-4.07v-3h-.11a5.39,5.39,0,0,1-.7,1,7.53,7.53,0,0,1-1.41,1.21,10,10,0,0,1-2.05,1,8,8,0,0,1-2.69.44,9.24,9.24,0,0,1-3.17-.53A5.56,5.56,0,0,1,331,95.13a7.53,7.53,0,0,1-1.52-3,17.21,17.21,0,0,1-.52-4.53V70.32h4.45v17A8,8,0,0,0,334.51,92a3.92,3.92,0,0,0,3.34,1.41,5.22,5.22,0,0,0,3.22-1,10.11,10.11,0,0,0,2.09-1.9V70.32h4.45M368.8,96.68v-17c0-2.23-.38-3.83-1.14-4.81a4.09,4.09,0,0,0-3.42-1.44,5.37,5.37,0,0,0-3.3,1,11.9,11.9,0,0,0-2.07,1.91V96.68h-4.45V70.32h4.05v3h.11a5.1,5.1,0,0,1,.72-1,6.87,6.87,0,0,1,1.43-1.21,9.69,9.69,0,0,1,2.09-1,7.94,7.94,0,0,1,2.73-.43,8.94,8.94,0,0,1,3.19.52,5.72,5.72,0,0,1,2.42,1.66,8.26,8.26,0,0,1,1.53,3,16.31,16.31,0,0,1,.54,4.54v17.3m25.53-22.9h-3.3a8.86,8.86,0,0,1,1.28,4.72,9.62,9.62,0,0,1-.7,3.76,8,8,0,0,1-1.91,2.83,8.52,8.52,0,0,1-2.92,1.75,10.32,10.32,0,0,1-3.58.61h-.73a4.6,4.6,0,0,1-.7-.07,6.49,6.49,0,0,0-1.39.88,2.07,2.07,0,0,0-.7,1.61,1.61,1.61,0,0,0,.63,1.33,3.15,3.15,0,0,0,2.06.52h3.35a14.1,14.1,0,0,1,3.46.4,7.85,7.85,0,0,1,2.77,1.22,6.17,6.17,0,0,1,1.84,2.18,7.11,7.11,0,0,1,.65,3.17,8.58,8.58,0,0,1-.9,3.9,9.12,9.12,0,0,1-2.56,3,12.37,12.37,0,0,1-4,2,18.38,18.38,0,0,1-5.28.71c-2.81,0-4.95-.62-6.41-1.84a6.54,6.54,0,0,1-2.2-5.3,5.78,5.78,0,0,1,.52-2.54,7.8,7.8,0,0,1,1.24-1.87,6.35,6.35,0,0,1,1.45-1.26l1.18-.74v-.11A4.31,4.31,0,0,1,380.22,91a3.78,3.78,0,0,1,.4-1.81,5.64,5.64,0,0,1,.93-1.27,6.41,6.41,0,0,1,1.05-.79,6.16,6.16,0,0,1,.79-.41v-.11a7.39,7.39,0,0,1-3.26-2.94,9.55,9.55,0,0,1-1.24-5.13,10,10,0,0,1,.72-3.88,8.05,8.05,0,0,1,1.91-2.77,8.15,8.15,0,0,1,2.83-1.64,11,11,0,0,1,3.49-.54,9.52,9.52,0,0,1,3.51.65h8M386.53,95.85a10.31,10.31,0,0,1-2-.18,8.51,8.51,0,0,0-.95.66,4.9,4.9,0,0,0-.87.94,4.9,4.9,0,0,0-.86,3c0,2.83,1.55,4.23,4.66,4.23q4,0,5.93-1.56a4.56,4.56,0,0,0,1.91-3.59,3,3,0,0,0-1.21-2.72,5.81,5.81,0,0,0-3.22-.79M392.4,78.5c0-1.91-.45-3.26-1.35-4.06a4.55,4.55,0,0,0-3.15-1.2,4.81,4.81,0,0,0-3.3,1.2c-.92.8-1.37,2.15-1.37,4.06s.45,3.26,1.37,4a4.9,4.9,0,0,0,6.45,0q1.35-1.18,1.35-4M203.69,152h-4.05v-3h-.11a5.42,5.42,0,0,1-.72.95,6.82,6.82,0,0,1-1.4,1.21,10.13,10.13,0,0,1-2.06,1,7.77,7.77,0,0,1-2.68.43,9.14,9.14,0,0,1-3.16-.52,5.68,5.68,0,0,1-2.39-1.68,7.92,7.92,0,0,1-1.51-3,16.68,16.68,0,0,1-.53-4.52v-17.3h4.45v17c0,2.19.36,3.75,1.08,4.69a3.89,3.89,0,0,0,3.32,1.4,5.3,5.3,0,0,0,3.24-1,10.21,10.21,0,0,0,2.07-1.89v-20.2h4.45M224.88,152v-17c0-2.23-.38-3.84-1.12-4.81a4.09,4.09,0,0,0-3.44-1.44,5.22,5.22,0,0,0-3.28,1A12.11,12.11,0,0,0,215,131.7V152H210.5V125.66h4.06v3h.11a6.89,6.89,0,0,1,.72-1,7.33,7.33,0,0,1,1.42-1.2,9.68,9.68,0,0,1,2.09-1,8.15,8.15,0,0,1,2.76-.44,9,9,0,0,1,3.17.53,5.69,5.69,0,0,1,2.41,1.65,8.45,8.45,0,0,1,1.55,3,16.39,16.39,0,0,1,.54,4.55V152m5.44-12.79a19,19,0,0,1,1-6.7,12.28,12.28,0,0,1,2.7-4.34,9.28,9.28,0,0,1,3.73-2.33,12.9,12.9,0,0,1,4.16-.68,10.85,10.85,0,0,1,2.2.18,8.51,8.51,0,0,1,1.55.47V113.21l4.43-.5V152h-4v-2.81h-.11a5.07,5.07,0,0,1-.61.9,5.17,5.17,0,0,1-1.21,1.15,6.85,6.85,0,0,1-1.91,1,8.15,8.15,0,0,1-2.7.41,8.69,8.69,0,0,1-3.53-.74,7.5,7.5,0,0,1-2.94-2.36,12.06,12.06,0,0,1-2-4.18,22,22,0,0,1-.74-6.16m10.42,9.49a5.74,5.74,0,0,0,1.87-.28,5.07,5.07,0,0,0,1.42-.69,5.87,5.87,0,0,0,1-.85,5,5,0,0,0,.65-.77V129.9a6.26,6.26,0,0,0-1.4-.67,6.41,6.41,0,0,0-2-.27,7.65,7.65,0,0,0-2.89.52,5.58,5.58,0,0,0-2.34,1.73,9.13,9.13,0,0,0-1.57,3.14,17,17,0,0,0-.57,4.7,19,19,0,0,0,.47,4.59,8.38,8.38,0,0,0,1.29,3,4.77,4.77,0,0,0,1.88,1.62,4.84,4.84,0,0,0,2.18.5M274,152V114.13h18.59l-.32,3.8h-13.5v14h12.45v3.81H278.73V152m17.17-13.19a20.71,20.71,0,0,1,.85-6.25,12.12,12.12,0,0,1,2.31-4.3,8.93,8.93,0,0,1,3.35-2.47,10.65,10.65,0,0,1,8.1,0,8.41,8.41,0,0,1,3.23,2.47,12.31,12.31,0,0,1,2.18,4.3,22.2,22.2,0,0,1,.79,6.25,21.12,21.12,0,0,1-.83,6.33,11.93,11.93,0,0,1-2.27,4.3,8.69,8.69,0,0,1-3.38,2.44,10.66,10.66,0,0,1-4.06.77,10.53,10.53,0,0,1-4.07-.77,8,8,0,0,1-3.22-2.44,12.35,12.35,0,0,1-2.18-4.29,21.85,21.85,0,0,1-.8-6.34m16.2,0c0-3.51-.5-6.05-1.53-7.65a4.86,4.86,0,0,0-4.29-2.38,4.75,4.75,0,0,0-4.25,2.38c-1,1.6-1.51,4.14-1.51,7.65s.52,6,1.53,7.59a4.89,4.89,0,0,0,4.28,2.3,4.81,4.81,0,0,0,4.26-2.3c1-1.55,1.51-4.07,1.51-7.59m21.78-9.28a3.36,3.36,0,0,0-.7-.27,5.91,5.91,0,0,0-1.5-.16,4.61,4.61,0,0,0-3.26,1.12,6.5,6.5,0,0,0-1.67,2.45V152H322.3V125.66h4.07v3.57h.11a8,8,0,0,1,.72-1.51,5.48,5.48,0,0,1,1.08-1.32,5.15,5.15,0,0,1,1.57-.9,6.42,6.42,0,0,1,2.18-.32,5.81,5.81,0,0,1,1.51.16l.9.27m15,5.39a9.13,9.13,0,0,0-1.58-1.36,5,5,0,0,0-3-.84,4,4,0,0,0-2.68.81,2.56,2.56,0,0,0-.92,2A3.56,3.56,0,0,0,342,134a11.79,11.79,0,0,0,2.62,2.05l1.64,1a15.93,15.93,0,0,1,4.21,3.42,7.72,7.72,0,0,1-.63,10,8.5,8.5,0,0,1-6.23,2.14,11.29,11.29,0,0,1-2.8-.32,14.33,14.33,0,0,1-2.1-.78,6.74,6.74,0,0,1-1.52-.95,10.23,10.23,0,0,1-1-1l2.15-3.51c.21.23.48.49.79.77a7.08,7.08,0,0,0,1.13.85,6.29,6.29,0,0,0,1.48.69,6,6,0,0,0,1.93.28,4.58,4.58,0,0,0,3-.88,2.69,2.69,0,0,0,1-2.14,4.88,4.88,0,0,0-.25-1.62,3.61,3.61,0,0,0-.74-1.23,5.45,5.45,0,0,0-1.21-1c-.46-.33-1-.71-1.63-1.1l-1.66-1.05a15.72,15.72,0,0,1-3.86-3.35,7,7,0,0,1-1.4-4.5,6.56,6.56,0,0,1,.57-2.72,6.13,6.13,0,0,1,1.63-2.13,7.52,7.52,0,0,1,2.43-1.42,8.25,8.25,0,0,1,3-.53,10.21,10.21,0,0,1,2.63.29,9.18,9.18,0,0,1,1.89.78,8.24,8.24,0,0,1,1.31.93c.35.31.63.58.85.8m20.59,2.95-.52-.48a6.29,6.29,0,0,0-.92-.67,6.74,6.74,0,0,0-1.31-.58,5.89,5.89,0,0,0-1.75-.23,6.94,6.94,0,0,0-2.67.52,5.21,5.21,0,0,0-2.14,1.68,8.33,8.33,0,0,0-1.42,3,16.32,16.32,0,0,0-.53,4.46,22.3,22.3,0,0,0,.47,4.89,9.26,9.26,0,0,0,1.28,3.15,5,5,0,0,0,2,1.71,6.37,6.37,0,0,0,2.59.52,5.61,5.61,0,0,0,3.1-.72,8.88,8.88,0,0,0,1.51-1.15l1.82,3.08a7.76,7.76,0,0,1-.81.79,6.68,6.68,0,0,1-1.33.91,9,9,0,0,1-2,.73,11.06,11.06,0,0,1-2.72.31,11.58,11.58,0,0,1-4.13-.72,8,8,0,0,1-3.33-2.36,11.75,11.75,0,0,1-2.25-4.27,22,22,0,0,1-.83-6.54,18,18,0,0,1,1-6.41,11.91,11.91,0,0,1,2.58-4.26,9.65,9.65,0,0,1,3.55-2.36,10.72,10.72,0,0,1,3.91-.74,11.32,11.32,0,0,1,2.61.27,8.81,8.81,0,0,1,1.93.69,5.86,5.86,0,0,1,1.31.88l.85.79m19,24.38v-17a8.15,8.15,0,0,0-1.11-4.81,4.12,4.12,0,0,0-3.45-1.44,5.27,5.27,0,0,0-3.29,1,11.9,11.9,0,0,0-2.07,1.91V152h-4.45V113.21l4.45-.5v15.64h.1a10.51,10.51,0,0,1,.69-.87,5.53,5.53,0,0,1,1.28-1.1,9.18,9.18,0,0,1,2-1,8.54,8.54,0,0,1,2.76-.4,7,7,0,0,1,5.5,2.26c1.35,1.49,2,4,2,7.45V152m25.08,0h-4.05v-3h-.13a4.53,4.53,0,0,1-.7.95,6.64,6.64,0,0,1-1.41,1.21,9.78,9.78,0,0,1-2.05,1,7.85,7.85,0,0,1-2.68.43,9.1,9.1,0,0,1-3.16-.52,5.71,5.71,0,0,1-2.39-1.68,7.73,7.73,0,0,1-1.52-3,17.13,17.13,0,0,1-.52-4.52v-17.3h4.45v17c0,2.18.36,3.75,1.08,4.69a3.85,3.85,0,0,0,3.32,1.4,5.3,5.3,0,0,0,3.24-1,10.78,10.78,0,0,0,2.07-1.89v-20.2h4.45M443.55,152v-17c0-2.24-.38-3.84-1.14-4.81A4,4,0,0,0,439,128.8a5.32,5.32,0,0,0-3.3,1,12.68,12.68,0,0,0-2.07,1.91V152h-4.45V125.66h4.06v3h.1a8.75,8.75,0,0,1,.72-1,7.81,7.81,0,0,1,1.43-1.21,10.16,10.16,0,0,1,2.09-1,8,8,0,0,1,2.74-.44,9,9,0,0,1,3.19.53,5.82,5.82,0,0,1,2.41,1.65,8.11,8.11,0,0,1,1.53,3,16.29,16.29,0,0,1,.56,4.54V152m25.51-22.9h-3.28a9.06,9.06,0,0,1,1.26,4.72,10,10,0,0,1-.68,3.77,8.18,8.18,0,0,1-1.93,2.83,8.6,8.6,0,0,1-2.9,1.74,10.16,10.16,0,0,1-3.6.62h-.72a4.82,4.82,0,0,1-.71-.08,5.68,5.68,0,0,0-1.37.89,2,2,0,0,0-.72,1.6,1.67,1.67,0,0,0,.63,1.33,3.14,3.14,0,0,0,2.06.53h3.35a14,14,0,0,1,3.46.39,7.86,7.86,0,0,1,2.77,1.23,5.64,5.64,0,0,1,1.84,2.18,7.08,7.08,0,0,1,.65,3.17,8.29,8.29,0,0,1-.9,3.89,9.19,9.19,0,0,1-2.54,3,12.9,12.9,0,0,1-4,2,18.35,18.35,0,0,1-5.26.7c-2.83,0-5-.61-6.43-1.84a6.52,6.52,0,0,1-2.2-5.29,5.78,5.78,0,0,1,.52-2.54,8.2,8.2,0,0,1,1.25-1.88,6.18,6.18,0,0,1,1.45-1.26l1.18-.74V150a4.28,4.28,0,0,1-1.7-3.67,3.6,3.6,0,0,1,.42-1.82,4.77,4.77,0,0,1,.92-1.26,5.11,5.11,0,0,1,1-.79,6.54,6.54,0,0,1,.79-.42v-.11a7.54,7.54,0,0,1-3.26-2.93,9.62,9.62,0,0,1-1.22-5.14,9.93,9.93,0,0,1,.7-3.87,7.65,7.65,0,0,1,4.76-4.42,10.88,10.88,0,0,1,3.47-.54,9.57,9.57,0,0,1,3.52.65h8m-12.84,25.53a9.61,9.61,0,0,1-2-.18,8.61,8.61,0,0,0-.95.67,4.3,4.3,0,0,0-.85.94,4.44,4.44,0,0,0-.63,1.27,5.2,5.2,0,0,0-.25,1.73q0,4.24,4.66,4.24,4,0,5.93-1.57a4.55,4.55,0,0,0,1.93-3.58,3.07,3.07,0,0,0-1.21-2.73,5.93,5.93,0,0,0-3.24-.79m2.52-17.35q0-2.86-1.35-4.05a4.56,4.56,0,0,0-3.15-1.21,4.82,4.82,0,0,0-3.3,1.21c-.9.79-1.37,2.14-1.37,4.05a5.21,5.21,0,0,0,1.37,4.06,4.93,4.93,0,0,0,6.45,0c.9-.8,1.35-2.15,1.35-4.06"/><path class="cls-2" d="M145,188.91h6.92v92.24H135.74V188.91"/><path class="cls-3" d="M145,96.21h6.92v92.7H135.74V96.21"/><path class="cls-1" d="M93.72,36.66c4.72,7.48,8.42,7.35,14,7.35a40.08,40.08,0,0,1-9.13-10.39L90,19.82A20.48,20.48,0,0,0,83.63,8.61a11,11,0,0,0,2.58-1.28C80.59,7.33,75,4.47,71.92,4.47c-2,0-3.24,1.17-3.24,2.74.13,1.73,1.93,3.51,5.22,3.51a19.33,19.33,0,0,0,2.76-.27c1.8,2.49,3.24,4.74,3.24,8,0,6-7.22,10.76-14.52,10.76-.41,0-.81,0-1.22-.06-.65-1.49-2.85-4-2.85-6.86,0-4.81,3.14-8.74,3.14-13.49a9,9,0,0,0-2-5.54A8,8,0,0,0,64.54.67a5.46,5.46,0,0,1-2,.25C59,.92,56.16,0,53.38,0c-1.58,0-2,.5-2,1a1.26,1.26,0,0,0,.07.44,8,8,0,0,0-1.8-.53A15.6,15.6,0,0,0,47,.65c-3.39,0-4.6,1.42-4.6,2.63A10.19,10.19,0,0,0,44.14,7.6a10.51,10.51,0,0,1,3.62-1.1c1.79,0,3.39,1.72,4.24,3.73a15.92,15.92,0,0,1-2.67.2,20.13,20.13,0,0,1-6-1.19s-.13,0-.13.11c0,.45.94,1.68,2.78,2.34A34.44,34.44,0,0,0,52.64,13c0,.11-.61,1.27-1.29,1.48a.81.81,0,0,1-.44,0,31.25,31.25,0,0,1-6.43-1.93c-.11,0-.16,0-.16.13,0,1.26,3.28,4.07,6.22,5.13-2.45,3.14-5.52,6.34-7,11.24a11.76,11.76,0,0,1-1.2.06c-7.3,0-14.52-4.72-14.52-10.76,0-3.22,1.44-5.47,3.24-8a19.33,19.33,0,0,0,2.76.27c3.29,0,5.09-1.78,5.22-3.51,0-1.57-1.28-2.74-3.26-2.74-3.06,0-8.65,2.86-14.29,2.86a11.19,11.19,0,0,0,2.6,1.28,20.48,20.48,0,0,0-6.35,11.21L9.13,33.62A39.32,39.32,0,0,1,0,44c5.58,0,9.3.13,14-7.35l4.41-7.08a21,21,0,0,0,1.21,2.71L10.85,46.36A40.31,40.31,0,0,1,1.71,56.73c5.59,0,9.28.13,14-7.33l7.57-12.12c.57.61,1.17,1.2,1.8,1.76L14.4,56.14A39.61,39.61,0,0,1,5.26,66.52c5.59,0,9.28.14,14-7.34L29.67,42.52c.69.43,1.39.85,2.11,1.24L19.08,64.1A39.88,39.88,0,0,1,10,74.48c5.58,0,9.27.13,14-7.33l13.1-21c.78.31,1.55.58,2.36.85L24.61,70.72a40.23,40.23,0,0,1-9.13,10.37c5.58,0,9.28.13,14-7.33L45.24,48.52l.49.09a13,13,0,0,1,.72,3.91c0,7.93-5.21,14.92-11.44,20.32a4.72,4.72,0,0,0,1.73.25,15,15,0,0,0,2.7-.18c-1.44,3.28-4.54,7.53-6.11,9.73a47,47,0,0,0-7-.65c-2,0-2.27,1.19-2.27,2.26A5.35,5.35,0,0,0,26,88.39c.38-1,1.14-2.22,4.9-2.22l.38,0c-1.1,1.23-4.54,4-4.54,6.25a4.09,4.09,0,0,0,3.77,3.71,4.37,4.37,0,0,1-.11-1.24c0-1.82,1.62-3.94,3-5.42a8.54,8.54,0,0,0,0,.9c0,4.31.4,6.27,3.12,6.27a4.28,4.28,0,0,0,2.58-1c-1.79-1.62-1.86-2.9-1.86-5.31V88.3a9.79,9.79,0,0,0-.09-1.8,12.92,12.92,0,0,1,2.13-.13s3.87-.3,4.81,1.71c1-1,2.57-2.32,2.57-3.83,0-1-.46-2.11-2.46-2.11-.76,0-3.14.47-5.12.47a47.78,47.78,0,0,1,5-7.19,5.76,5.76,0,0,0,1.87,2.9c.15-1.62,1.1-6.76,3.64-9.77a48.62,48.62,0,0,1,.69,8.51c0,10.66-2.56,18.54-8,20a4.64,4.64,0,0,0,3.76,2.34c2,0,3.07-2.25,4.18-4.38.58,1.57,2.17,5.41,3.77,5.41s3.19-3.84,3.77-5.41c1.09,2.13,2.18,4.38,4.18,4.38a4.67,4.67,0,0,0,3.76-2.34c-5.44-1.51-8-9.39-8-20a46.22,46.22,0,0,1,.71-8.51c2.52,3,3.47,8.15,3.62,9.77a5.81,5.81,0,0,0,1.89-2.9,51,51,0,0,1,5,7.19c-2,0-4.38-.47-5.12-.47-2,0-2.46,1.12-2.46,2.11,0,1.51,1.53,2.86,2.57,3.83.94-2,4.81-1.71,4.81-1.71a13.17,13.17,0,0,1,2.13.13,11.92,11.92,0,0,0-.11,1.8c0,.85,0,1.46,0,2.09,0,2.41-.09,3.69-1.86,5.31a4.28,4.28,0,0,0,2.58,1c2.72,0,3.12-2,3.12-6.27a8.47,8.47,0,0,0,0-.9c1.35,1.48,3,3.6,3,5.42a4.82,4.82,0,0,1-.12,1.24A4.09,4.09,0,0,0,81,92.44c0-2.23-3.44-5-4.56-6.25l.38,0c3.78,0,4.54,1.26,4.92,2.22a5.35,5.35,0,0,0,1.87-4.14c0-1.07-.23-2.26-2.27-2.26a47,47,0,0,0-7,.65c-1.57-2.2-4.67-6.45-6.13-9.73a15.37,15.37,0,0,0,2.71.18,4.82,4.82,0,0,0,1.74-.25c-6.25-5.4-11.46-12.39-11.46-20.32A13.07,13.07,0,0,1,62,48.61l.49-.09L78.26,73.76c4.71,7.46,8.42,7.33,14,7.33a40.35,40.35,0,0,1-9.12-10.37L68.34,47c.79-.27,1.58-.54,2.36-.85l13.08,21c4.74,7.46,8.43,7.33,14,7.33A39.5,39.5,0,0,1,88.66,64.1L76,43.76c.7-.39,1.42-.81,2.11-1.24L88.48,59.18c4.72,7.48,8.41,7.34,14,7.34a39.61,39.61,0,0,1-9.14-10.38L82.66,39a22.77,22.77,0,0,0,1.78-1.76L92,49.4c4.72,7.46,8.41,7.33,14,7.33a39.54,39.54,0,0,1-9.14-10.37L88.1,32.29a22.45,22.45,0,0,0,1.21-2.71M23.13,20.47c0-5.26,3.82-9.43,5.17-10.6.33.07.65.16,1,.24-1.43,1.73-4,4.66-4,8.54C25.31,26.34,33.53,33,42.84,33a19.66,19.66,0,0,0-.09,2.06,31.8,31.8,0,0,0,.16,3.19c-10.52-.06-19.78-8.6-19.78-17.8M37.38,83.53l-.05.18h.18a34,34,0,0,0,5.35-.35,9,9,0,0,1,1.24-.12c.76,0,1.35.07,1.35,1A3.75,3.75,0,0,1,44,86.46c-1.09-1-2.6-1.22-4.82-1.22a25.59,25.59,0,0,0-3.11.28l-.11,0-.13,0,0,.34a15.81,15.81,0,0,1,.18,2.4v.94l0,1.15c0,2.5.34,4,1.23,5a2.77,2.77,0,0,1-.83.16c-1.57,0-2-.69-2-5.19,0-.9,0-1.73-.07-2.31l-.06-.83-.19.15c-2.31,1.76-4.71,4.92-4.83,7.28a3.22,3.22,0,0,1-1.46-2.24c0-1.28,1.93-3.2,4.18-5.46l1.44-1.44L33,85.43a9.48,9.48,0,0,0-2.14-.36c-2.5,0-4.09.49-5.06,1.54a5.41,5.41,0,0,1-.63-2.36,1.29,1.29,0,0,1,.27-.94,1.13,1.13,0,0,1,.84-.22h.08a54.54,54.54,0,0,1,7.37.7l.07,0,.05,0c.22-.31,5.5-7.33,6.87-11.06a2.63,2.63,0,0,1,1.15-.22c1,0,1.31.7,1.62,1.78-3.3,4-5.35,7.12-6.11,9.26m28.49-11A2.53,2.53,0,0,1,67,72.7c1.37,3.73,6.65,10.75,6.88,11.06l0,0H74a52.33,52.33,0,0,1,7.37-.71h.05a1.18,1.18,0,0,1,.87.22,1.3,1.3,0,0,1,.27.94,5.16,5.16,0,0,1-.65,2.36c-1-1-2.54-1.54-5.06-1.54a9.49,9.49,0,0,0-2.13.36l-.2,0-.23.07L75.76,87c2.23,2.26,4.18,4.18,4.18,5.46a3.25,3.25,0,0,1-1.46,2.24c-.15-2.36-2.52-5.52-4.85-7.28l-.2-.15,0,.83c0,.58-.07,1.41-.07,2.31,0,4.5-.47,5.19-2,5.19a2.6,2.6,0,0,1-.83-.16c.86-1.09,1.22-2.53,1.22-5V89.24l0-.94a15.4,15.4,0,0,1,.2-2.4l0-.34-.23,0a23.92,23.92,0,0,0-3.12-.29c-2.21,0-3.73.19-4.81,1.22a3.78,3.78,0,0,1-1.46-2.21c0-.94.58-1,1.35-1a9.13,9.13,0,0,1,1.25.12,33.69,33.69,0,0,0,5.35.35h.18l-.07-.18c-.74-2.15-2.8-5.27-6.09-9.27.28-1.08.57-1.78,1.62-1.78M53.65,11.13a9.87,9.87,0,0,0-1.93-3.82,5.35,5.35,0,0,0-4-2.09A9.33,9.33,0,0,0,44.68,6a8.13,8.13,0,0,1-1-2.7c0-.67,1.13-1.35,3.29-1.35,4.76,0,7.59,2.16,7.59,5.76a8.57,8.57,0,0,1-.94,3.44m2.13-4.68a6.11,6.11,0,0,0-1.15-2.74c0-.92.41-1.82,1.92-1.08-.83.83-.2,2.29-.2,2.29S58,4.16,57.67,3.06c2.47.6.7,3.89-1.89,3.39M65,38.27a27.45,27.45,0,0,0,.2-3.19A19.62,19.62,0,0,0,65.16,33c9.19-.13,17.26-6.74,17.26-14.36,0-3.88-2.52-6.81-4-8.54l1-.24C80.79,11,84.6,15.2,84.6,20.47c0,9.13-9.13,17.62-19.56,17.8"/><path class="cls-4" d="M151.88,4.43V96.68H135.74V4.43"/></g></svg>