<svg xmlns="http://www.w3.org/2000/svg" width="126.595" height="100.363" viewBox="0 0 126.595 100.363">
  <g id="Group_297" data-name="Group 297" transform="translate(4817.793 -6971)">
    <path id="Rechteck_1542" data-name="Rechteck 1542" d="M-440.988,1412.24h111.342c2.879,0,5.077,1.835,4.91,4.1l-4.753,64.477c-.167,2.264-2.516,4.1-5.247,4.1H-440.363c-2.731,0-4.967-1.835-5-4.1l-.792-64.477C-446.177,1414.075-443.866,1412.24-440.988,1412.24Z" transform="translate(-4369.808 5586.449)" fill="#54bbba"/>
    <path id="Path_2399" data-name="Path 2399" d="M-336.561,1356.952l.238-3.583c.11-1.66-1.086-4.295-2.382-4.295-2.279,0-2.691,2.635-2.8,4.295l-.226,3.583h-90.139v-3.583c0-1.66-.767-4.295-2.062-4.295s-2.646,2.635-2.642,4.295l.011,3.583h-13.78l.331,26.284h124.277l1.987-26.284Zm-97.623,17.376h0c-3.581,0-5.549-2.674-5.57-6.239-.016-2.75.763-5.308,3.214-6.238l.012,4.1a4.4,4.4,0,0,0,2.135,3.828c1.139.54,2.528-2.166,2.528-3.828v-4.1c2.454.929,4.331,2.91,4.323,5.661C-427.555,1371.076-429.579,1374.328-434.184,1374.328Zm93.684,0h0c-3.581,0-6.277-3.106-6.107-7.193.114-2.753,2.062-4.354,4.575-5.284l-.259,4.1a2.789,2.789,0,0,0,2.136,3.02c1.52.405,2.784-1.417,2.894-3.079l.218-3.916c2.393.929,4.395,2.792,3.63,6.11C-334.218,1371.571-336.92,1374.327-340.5,1374.328Z" transform="translate(-4367.456 5621.925)" fill="#004968"/>
    <path id="Rechteck_1543" data-name="Rechteck 1543" d="M-430.647,1458.369c-.325-4.884,6.7-3.794,9.688-4.188,5.118-.3,2.525,7.7,2.6,10.509-.267,4.882-5.632,3.7-8.761,3.76C-431.475,1468.461-430.281,1461.125-430.647,1458.369Z" transform="translate(-4378.509 5562.897)" fill="#004968"/>
    <path id="Rechteck_1544" data-name="Rechteck 1544" d="M-389.609,1460.178c.013-4.549,6.134-3.735,9.07-4.1,4.615-.363,3.185,7.309,3.543,10.041.243,4.952-6.487,3.474-9.45,3.672C-391.3,1469.884-389.474,1463.037-389.609,1460.178Z" transform="translate(-4401.436 5561.837)" fill="#004968"/>
    <path id="Rechteck_1545" data-name="Rechteck 1545" d="M-346.211,1459.042c-.336-4.75,6.226-3.971,9.18-4.432,4.738-.514,3.783,7.055,4.3,9.906.529,4.946-6.507,3.845-9.466,4.232C-347.157,1469.147-345.846,1461.989-346.211,1459.042Z" transform="translate(-4425.931 5562.666)" fill="#004968"/>
    <path id="Rechteck_1546" data-name="Rechteck 1546" d="M-303.809,1458.345c-.142-4.863,6.788-3.81,9.836-4.189,5.142-.278,2.207,7.781,2.209,10.527-.409,4.845-5.713,3.7-8.88,3.752C-305.035,1468.431-303.538,1461.066-303.809,1458.345Z" transform="translate(-4449.731 5562.911)" fill="#004968"/>
    <path id="Rechteck_1547" data-name="Rechteck 1547" d="M-261.585,1458.335c-.081-4.855,6.817-3.814,9.885-4.188,5.151-.269,2.1,7.809,2.079,10.535-.456,4.831-5.74,3.7-8.92,3.748C-262.945,1468.421-261.344,1461.043-261.585,1458.335Z" transform="translate(-4473.415 5562.916)" fill="#004968"/>
    <path id="Rechteck_1548" data-name="Rechteck 1548" d="M-220.859,1460.134c.217-4.524,6.231-3.749,9.238-4.1,4.661-.332,2.812,7.395,3.052,10.074.008,4.895-6.611,3.477-9.639,3.658C-223.116,1469.841-220.837,1462.917-220.859,1460.134Z" transform="translate(-4496.054 5561.858)" fill="#004968"/>
    <path id="Rechteck_1549" data-name="Rechteck 1549" d="M-430.409,1516.936c-.428-4.682,5.958-3.984,8.867-4.425,4.718-.534,3.947,7.007,4.522,9.875.626,4.881-6.218,3.867-9.134,4.231C-431.088,1527.032-429.981,1519.909-430.409,1516.936Z" transform="translate(-4378.637 5530.148)" fill="#004968"/>
    <path id="Rechteck_1550" data-name="Rechteck 1550" d="M-388.73,1516.231c-.254-4.8,6.5-3.827,9.5-4.186,5.125-.3,2.435,7.724,2.488,10.51-.311,4.791-5.464,3.734-8.583,3.759C-389.694,1526.319-388.4,1518.976-388.73,1516.231Z" transform="translate(-4402.053 5530.398)" fill="#004968"/>
    <path id="Rechteck_1551" data-name="Rechteck 1551" d="M-349,1516.6c-.012-5,6.99-3.538,10.094-3.727,5.168-.1,3.25,7.366,3.421,10.428-.036,4.943-6.88,3.56-9.99,3.726C-350.631,1527.125-348.8,1519.673-349,1516.6Z" transform="translate(-4424.282 5529.965)" fill="#004968"/>
    <path id="Rechteck_1552" data-name="Rechteck 1552" d="M-307.124,1518.025c.117-4.466,5.976-3.766,8.931-4.1,4.638-.353,2.993,7.349,3.289,10.052.114,4.845-6.327,3.509-9.309,3.666C-309.092,1527.73-307.046,1520.847-307.124,1518.025Z" transform="translate(-4447.688 5529.344)" fill="#004968"/>
    <path id="Rechteck_1553" data-name="Rechteck 1553" d="M-264.308,1516.88c-.217-4.664,6.061-4,9.037-4.421,4.765-.506,3.586,7.1,4.03,9.929.391,4.847-6.34,3.874-9.322,4.22C-265.545,1527-264.008,1519.793-264.308,1516.88Z" transform="translate(-4471.935 5530.175)" fill="#004968"/>
    <path id="Rechteck_1554" data-name="Rechteck 1554" d="M-222.836,1516.191c-.012-4.769,6.621-3.843,9.694-4.181,5.159-.266,2,7.833,1.965,10.539-.5,4.738-5.576,3.733-8.743,3.744C-224.34,1526.277-222.626,1518.886-222.836,1516.191Z" transform="translate(-4495.142 5530.417)" fill="#004968"/>
    <path id="Path_2400" data-name="Path 2400" d="M-298.685,1460.038c1.7-1.294,11.384-10.451,3.321-8.431-6.545,6.394-4.965,7.043-11.337,0-7.848-2.062.924,7,2.688,8.43-1.689,1.3-11.234,10.44-3.253,8.432,6.483-6.393,4.888-7.057,11.2,0C-288.3,1470.523-296.932,1461.473-298.685,1460.038Z" transform="translate(-4446.047 5564.509)" fill="#f3d300"/>
  </g>
</svg>
