<svg xmlns="http://www.w3.org/2000/svg" viewBox="0 0 566.93 566.93"><defs><style>.cls-1{fill:#004968;}.cls-2{fill:#54bbba;}.cls-3{fill:#f3d300;}</style></defs><g id="Ebene_16" data-name="Ebene 16"><path class="cls-1" d="M265.66,509.43c-4.7-21.56-7.48-46.87-10.29-83.66-3.29-36-7.59-64.47,18.57-93.92,24,45.9,13.31,45.21,9.58,92.4-2.68,27.5-4,57.81-7.83,85.13C275.56,510.59,265.78,510.74,265.66,509.43Z"/><path class="cls-1" d="M332.13,105.69c2.46,19.2,4.08,38.4,6.16,57.6l2.53,28.79,2.08,28.8c.66,9.6,1.88,19.2,2.92,28.8a145.12,145.12,0,0,1,.16,28.8,233.32,233.32,0,0,1-4.51,28.8,146.36,146.36,0,0,1-9.34,28.8h-3.07a146.36,146.36,0,0,1-9.34-28.8,231.44,231.44,0,0,1-4.51-28.8,145.12,145.12,0,0,1,.16-28.8c1-9.6,2.26-19.2,2.92-28.8l2.07-28.8,2.54-28.79c2.07-19.2,3.7-38.4,6.16-57.6Z"/><path class="cls-2" d="M217.43,320.58c-41.46,5.79-130.11,53.85-107,68.06s159.39,20.29,227.71,9S458.33,346,427.89,331,258.88,314.79,217.43,320.58Z"/><path class="cls-2" d="M433.64,167C422.9,233,169.57,265.88,234.78,94,296.4-68.36,461.66-5.08,433.64,167Z"/><path class="cls-3" d="M181.35,558.77s-11.67-17.12,4.59-26.27C238.27,505.5,212.89,593.27,181.35,558.77Z"/><path class="cls-3" d="M355.22,474.06c14.4-2.29,18.36,23.28-.46,22.89C338.81,497.49,341.25,474.53,355.22,474.06Z"/><path class="cls-1" d="M173.27,531.82a102.91,102.91,0,0,0,12.45-2.06c4.13-.84,8.2-1.93,12.23-3.11a213.55,213.55,0,0,0,23.61-8.44c7.69-3.19,15.12-6.94,22.41-10.84,3.64-2,7.21-4.06,10.78-6.11l10.59-6.68c7.5-4.74,15-9.76,23-13.87a98.75,98.75,0,0,1,25.23-9.26,125.93,125.93,0,0,1,26.83-3.22c9.06,0,18.19.81,27.11,3.94l0,2.51c-16.3,7.55-31.39,13.88-46.43,20.33-7.47,3.3-15,6.19-22.72,8.84a226.89,226.89,0,0,0-23,8.74l-12,5.41c-4.11,1.68-8.21,3.38-12.36,4.92a230.87,230.87,0,0,1-25.45,7.51c-17.23,3.75-34.83,6-52.33,3.9Z"/><path class="cls-3" d="M360.77,564.05s23.05-10,11-24.28C340.46,502.62,315.26,574.74,360.77,564.05Z"/><path class="cls-3" d="M188.2,475.35c-18.94-3-24.16,30.63.6,30.12C209.8,506.17,206.58,476,188.2,475.35Z"/><path class="cls-1" d="M370,534.52a198.27,198.27,0,0,1-26.5-1.58A206.94,206.94,0,0,1,318,528a235,235,0,0,1-24.84-8.18c-4.05-1.62-8-3.4-12.05-5.16L269.33,509a242.86,242.86,0,0,0-23-9.77l-23.23-8.92c-15.53-5.93-31.8-10.22-48.42-15.06,0,0-7.55-2.16.51-2.57,9.44-.48,17.63-1.7,26.41-1a146,146,0,0,1,26,4.49,132.62,132.62,0,0,1,24.73,9.18c7.94,3.8,15.47,8.36,23,12.84a266,266,0,0,0,45,22.47c15.68,6,43.89,10.33,49,10.8C375.5,532,377.41,534.31,370,534.52Z"/></g></svg>