<svg xmlns="http://www.w3.org/2000/svg" viewBox="0 0 566.93 566.93"><defs><style>.cls-1{fill:#54bbba;}.cls-2{fill:#004968;}.cls-3{fill:#f3d300;}</style></defs><g id="Ebene_12" data-name="Ebene 12"><ellipse class="cls-1" cx="286.49" cy="283.46" rx="275.77" ry="283.46"/><ellipse class="cls-2" cx="282.19" cy="290.05" rx="253.8" ry="260.89"/><path class="cls-1" d="M274.22,20.5c20.87-1.91,2.64,48.79-1.34,49S253.35,22.41,274.22,20.5Z"/><path class="cls-1" d="M273.4,559c-20.87,1.91-2.63-48.8,1.35-49S294.28,557.11,273.4,559Z"/><path class="cls-1" d="M401.6,56.79c19,9.37-20.81,43.65-24.36,41.75S382.62,47.42,401.6,56.79Z"/><path class="cls-1" d="M146,522.73c-19-9.37,20.82-43.65,24.37-41.75S165,532.1,146,522.73Z"/><path class="cls-1" d="M494.74,155.5c12,18.14-38.68,26.81-40.86,23.29S482.74,137.36,494.74,155.5Z"/><path class="cls-1" d="M52.89,424c-12-18.14,38.68-26.8,40.86-23.28S64.89,442.15,52.89,424Z"/><path class="cls-1" d="M528.68,290.19c1.81,22.05-46.18,2.78-46.4-1.42S526.88,268.14,528.68,290.19Z"/><path class="cls-1" d="M18.94,289.32c-1.8-22,46.19-2.78,46.41,1.42S20.75,311.37,18.94,289.32Z"/><path class="cls-1" d="M494.33,424.76c-8.87,20.05-41.31-22-39.51-25.74S503.2,404.71,494.33,424.76Z"/><path class="cls-1" d="M53.29,154.75c8.87-20.05,41.32,22,39.52,25.74S44.42,174.8,53.29,154.75Z"/><path class="cls-1" d="M400.89,523.16c-17.17,12.68-25.37-40.87-22-43.17S418.07,510.48,400.89,523.16Z"/><path class="cls-1" d="M146.73,56.35c17.17-12.68,25.38,40.87,22,43.17S129.56,69,146.73,56.35Z"/><path class="cls-3" d="M272,308.33C253.77,307,263.55,95,273.34,99.71S309.69,304,272,308.33Z"/><path class="cls-3" d="M280,290.9c12.26,14.27-91.1,108.85-95.89,99.28S251.39,264.83,280,290.9Z"/><path class="cls-3" d="M255,278.94s16.49-24.11,38.43-6.24-12.65,53-29.81,33.76S255,278.94,255,278.94Z"/><path class="cls-3" d="M247.45,122.5s15.89-36.07,25.39-41.22S300,128.57,300,128.57s3.31,6.07-6.44,3.86S243.16,131.66,247.45,122.5Z"/><path class="cls-3" d="M183.93,390.05s2.08-34.14,8.18-41.39,35.69,29,35.69,29,4.44,3.77-4,5.22S183.19,398.82,183.93,390.05Z"/></g></svg>