<svg xmlns="http://www.w3.org/2000/svg" viewBox="0 0 566.93 566.93"><defs><style>.cls-1{fill:#004968;}.cls-2{fill:#54bbba;}.cls-3{fill:none;stroke:#f3d300;stroke-linecap:round;stroke-miterlimit:10;stroke-width:50px;}</style></defs><g id="Ebene_20" data-name="Ebene 20"><path class="cls-1" d="M486.26,215.79,439.9,164.43a5.2,5.2,0,0,1-1.29-3.73l4.14-106.77c.1-2.77-1.77-4.93-4.19-4.84l-69.93,2.68a5,5,0,0,0-4.5,5.06l-.41,17.42c-.1,4.22-4.6,6.59-7.34,3.87L275,1.05a4.22,4.22,0,0,0-5.89.32L157.24,112.68,55.72,211.49c-2.78,2.67-.73,7.72,3.16,7.77l15.25.2a4.63,4.63,0,0,1,4.4,4.51L90,518.92a5.14,5.14,0,0,0,4.1,5l350.44,43c2.18.26,4-1.78,4.16-4.56l14.65-332.94c.12-2.79,2.11-5,4.45-5l15.25.19C486.91,224.66,489,218.92,486.26,215.79Z"/><ellipse class="cls-2" cx="270.39" cy="310" rx="117.63" ry="142.07"/><line class="cls-3" x1="273.91" y1="249.6" x2="266.64" y2="379.28"/><line class="cls-3" x1="211.21" y1="306.68" x2="329.85" y2="313.32"/></g></svg>