<svg xmlns="http://www.w3.org/2000/svg" viewBox="0 0 566.93 566.93"><defs><style>.cls-1{fill:#004968;}.cls-2{fill:none;stroke:#54bbba;stroke-linecap:round;stroke-miterlimit:10;stroke-width:40px;}</style></defs><g id="Ebene_27" data-name="Ebene 27"><path class="cls-1" d="M539.63,152.36s-57,78.91-47.38,107.9-1.83,94.35-62,161.78-192.93,83.15-199.2,81.81-78.89-3.64-78.89-3.64L59.81,358.87l12.67-72S72.14,211,145.69,137.49,342.16,62.11,342.16,62.11L421,33.71Z"/><path class="cls-2" d="M544.12,147.87S511,200.1,504.75,239.72c-6.07,38.69,16,91.84-74.5,182.32s-158.89,72-189.7,79.25c-16.28,3.82-60.54,18.16-85.4,43"/><path class="cls-2" d="M526.13,129.87s-35.86,49.3-46.25,84.35c-10.18,34.39.2,76.69-90.28,167.17s-147.31,82.67-173.92,95c-15.52,7.21-54.86,23.73-79.35,49.07"/><path class="cls-2" d="M508.13,111.88S469.52,158.26,455,188.73c-14.34,30.12-15.58,61.53-106.06,152S213.09,435.1,190.8,451.55c-15,11.06-49.18,29.3-73.28,55.12"/><path class="cls-2" d="M490.14,93.88s-41.42,43.48-60,69.36S398.78,209.61,308.3,300.09,184.22,407,165.93,426.67c-14.35,15.42-43.5,34.88-67.23,61.19"/><path class="cls-2" d="M472.14,75.88s-44.3,40.56-66.87,61.86c-22.84,21.57-47.14,31.22-137.62,121.7s-111.79,120-126.59,142.36c-13.3,20.12-37.83,40.44-61.18,67.24"/><path class="cls-2" d="M454.14,57.89s-47.22,37.56-73.74,54.36C353.23,129.46,317.48,128.3,227,218.79s-99,133.07-110.8,158.14-32.15,46-55.13,73.29"/><path class="cls-2" d="M436.15,39.89S386,74.39,355.53,86.75c-31.51,12.79-78.7.9-169.19,91.39s-85.93,146-95,173.92c-9.72,29.81-26.47,51.58-49.07,79.34"/><path class="cls-2" d="M418.15,21.9s-53,31.38-87.49,39.36c-35.82,8.3-94.48-14.26-185,76.23S73.07,296.23,66.44,327.18c-7.39,34.53-20.79,57.16-43,85.4"/></g></svg>