<?xml version="1.0" encoding="utf-8"?><svg id="Ebene_2" data-name="Ebene 2" xmlns="http://www.w3.org/2000/svg" viewBox="0 0 811.3 281.15"><defs><style>.cls-1,.cls-2{fill:#e4e4e4;}.cls-2{font-size:33.18px;font-family:TisaSansPro-Medium, Tisa Sans Pro;font-weight:500;}.cls-3{letter-spacing:-0.02em;}.cls-4{letter-spacing:-0.03em;}</style></defs><path class="cls-1" d="M179.73,125.67s-87.59,17.65-95.16,41,70.85,75,312.31,86.68c67.59,3.27,114.64,1.08,147.36-3.77,0,0-139.79,18.11-228.76,7.38,0,0,144.19,12.52,228.76,4.95,0,0-122,15.59-215.85,7.64,0,0,12.54,8.79,215.85,2.26,0,0-246.7,34-444.54-28.1-261.4-82.08,73.84-130.92,73.84-130.92s-47.31,8.7-64.36,15.51c0,0,53.51-9.78,67.57-10.7,0,0-45.71,11.51-63.29,18.69C113.46,136.33,150.49,126.47,179.73,125.67Z"/><path class="cls-1" d="M631.57,155.48s87.59-17.65,95.16-41-70.85-75-312.31-86.68c-67.59-3.27-114.64-1.08-147.36,3.77,0,0,139.79-18.11,228.76-7.38,0,0-144.19-12.52-228.76-4.95,0,0,122-15.59,215.85-7.64,0,0-12.54-8.79-215.85-2.26,0,0,246.7-34,444.54,28.1,261.4,82.08-73.84,130.93-73.84,130.93s47.31-8.71,64.36-15.52c0,0-53.5,9.78-67.57,10.7,0,0,45.71-11.51,63.29-18.69C697.84,144.82,660.81,154.68,631.57,155.48Z"/><text class="cls-2" transform="translate(186.39 207.04)">AMBIENT <tspan class="cls-3" x="156.06" y="0">A</tspan><tspan x="177.97" y="0">SSI</tspan><tspan class="cls-4" x="225.92" y="0">S</tspan><tspan x="243.84" y="0">TED LIVING</tspan></text><path class="cls-1" d="M302.58,161.67h41.34L291.79,64H244.6L188,161.67h40.89l10.76-21.1h53.65Zm-54-38.53,19.89-39,17.18,39Z"/><path class="cls-1" d="M462.5,161.67h41.55L451.66,64H404.24l-56.89,97.69h41.09l10.81-21.1h53.91Zm-54.31-38.53,20-39,17.26,39Z"/><polygon class="cls-1" points="548.83 141.18 548.83 63.98 508.16 63.98 508.16 161.67 544.24 161.67 548.83 161.67 606.3 161.67 606.3 141.18 548.83 141.18"/></svg>