<?xml version="1.0" encoding="utf-8"?><svg xmlns="http://www.w3.org/2000/svg" viewBox="0 0 856.08 281.06"><defs><style>.cls-1{fill:#e4e4e4;}</style></defs><g id="Ebene_5" data-name="Ebene 5"><path class="cls-1" d="M336.66,226.72h38.7c8.94,18,23.92,24.42,44,18.7,17.06-4.87,22.16-16.31,19.79-45.89A61.73,61.73,0,0,1,409.73,212c-35.46,5-67-16.42-74.68-51.53-3.77-17.15-3.14-34.26,2.71-51,10-28.59,39.51-46.66,68.31-41.52v32.54c-14.3,1.61-25.21,8-30,22.29a52,52,0,0,0-.4,32.52c4.91,15.92,18.22,24.23,35.4,22.56,15.48-1.51,26.13-12.38,28.34-29,.36-2.77.4-5.59.64-9.12h37.72c2,3,1.22,6.18,1.23,9.19q.12,33.49,0,67c-.08,36.1-24.29,62-60.57,64.67-15.95,1.16-31.73.21-46.62-6.37C351.6,265.33,340.22,249.74,336.66,226.72Z"/><path class="cls-1" d="M199.69,139.74c1.84,3.47,1.53,6.93,2.1,10.22,2.79,16.32,14.86,27,31.49,27.95,16.13.9,29.27-8.22,33.79-23.9,3.21-11.15,3-22.39-1.52-33.18-5.49-13-16.22-19-30.24-20.39V68.32c18.57-4.69,50.26,8.71,64,31.54,15.75,26.23,13.23,65.78-6,87.45-22.17,25-60.93,32.63-92.55,18.26-26-11.81-42.69-39.47-39.19-65.83Z"/><path class="cls-1" d="M854,112.15l-38.16,2.32c-6.19-14.93-11.65-18.74-23.58-16.7-5.72,1-10.24,3.51-11,10-.69,6.24,3.23,9.46,8.36,11.18,6.68,2.24,13.59,3.78,20.34,5.82s13.57,4,20.13,6.58c13.62,5.35,24.3,13.66,25.68,29.55,1.5,17.25-3.54,32.09-18.65,41.78s-32.17,11.12-50.26,9.05v-31.4c5.63,0,11.22,2.71,17.13,1,6.13-1.78,11.27-4,11.81-11.27.52-7-4.08-9.86-9.81-11.93-13.29-4.81-27.5-6.53-40.58-12-25.08-10.58-32.32-41.59-14.57-62.41a38,38,0,0,1,15-10.87c20-7.88,40.36-8.74,60.34-.52C843.38,79.32,852.21,93,854,112.15Z"/><path class="cls-1" d="M138.49,121l-38.17,3.4c-2.6-8-5.7-15.21-13-19.55-14.69-8.73-34.57-3-41.87,12.77-6.6,14.29-6.72,29,0,43.45,5.12,11,14.51,16.08,26.61,17.35v33.8C51.7,212.5,34,206.76,19.7,192.4c-27-27.19-26-80.8,1.65-107.12,26.93-25.6,75.4-24.88,101.06,1.52C131.35,96,136.47,107.06,138.49,121Z"/><path class="cls-1" d="M557.74,209.1,507.57,92.89H550.8l22.33,55.47,1.94-.15,22-55.18h43.17L590.15,209.1Z"/><path class="cls-1" d="M710.27,70v71.29H671.42V70Z"/><path class="cls-1" d="M689.9,0c13.77-.09,24.51,10.09,24.76,23.49s-10.12,24-23.93,24.18c-13.12.17-23.54-9.67-23.62-22.3C667,11.27,677.07.09,689.9,0Z"/></g></svg>