<svg xmlns="http://www.w3.org/2000/svg" width="95.833" height="138.279" viewBox="0 0 95.833 138.279">
  <path id="Path_2014" data-name="Path 2014" d="M3559.828,918.073h-84.655a5.588,5.588,0,0,0-5.589,5.589v127.1a5.588,5.588,0,0,0,5.589,5.589h84.655a5.589,5.589,0,0,0,5.589-5.589v-127.1A5.589,5.589,0,0,0,3559.828,918.073Zm-78.384,12.948h19.047a1.952,1.952,0,0,1,0,3.9h-19.047a1.952,1.952,0,0,1,0-3.9Zm-1.952,15.99a1.952,1.952,0,0,1,1.952-1.952h19.047a1.952,1.952,0,0,1,1.952,1.952v23.736a1.952,1.952,0,0,1-1.952,1.952h-19.047a1.952,1.952,0,0,1-1.952-1.952Zm1.952,31.465h19.047a1.952,1.952,0,0,1,0,3.9h-19.047a1.952,1.952,0,0,1,0-3.9Zm73.093,61.58h-73.093a1.953,1.953,0,0,1,0-3.905h73.093a1.953,1.953,0,0,1,0,3.905Zm0-19.225h-73.093a1.952,1.952,0,0,1,0-3.9h73.093a1.952,1.952,0,0,1,0,3.9Zm0-19.225h-73.093a1.952,1.952,0,0,1,0-3.9h73.093a1.952,1.952,0,0,1,0,3.9Zm0-66.68h-8.162a1.952,1.952,0,1,1,0-3.9h8.162a1.952,1.952,0,0,1,0,3.9Z" transform="translate(-3469.584 -918.073)" fill="#004969"/>
</svg>
