<svg xmlns="http://www.w3.org/2000/svg" width="242.265" height="85.181" viewBox="0 0 242.265 85.181">
  <g id="Group_246" data-name="Group 246" transform="translate(-188.735 -98.469)">
    <g id="Group_184" data-name="Group 184" transform="translate(188.523 445.169)">
      <g id="Group_116" data-name="Group 116" transform="translate(214.651 -346.7)">
        <g id="Group_113" data-name="Group 113" transform="translate(0 0.088)">
          <g id="Group_112" data-name="Group 112">
            <path id="Path_2191" data-name="Path 2191" d="M429.795-326.9l-9.212,12.523a.986.986,0,0,1-1.713-.227l-11.6-29.842a1.53,1.53,0,0,1,2.244-1.847l18.884,11.955A5.173,5.173,0,0,1,429.795-326.9Z" transform="translate(-407.157 346.534)" fill="#004969"/>
          </g>
        </g>
        <g id="Group_115" data-name="Group 115" transform="translate(1.615)">
          <g id="Group_114" data-name="Group 114">
            <path id="Path_2192" data-name="Path 2192" d="M411.193-327.286l9.22,12.838a.986.986,0,0,0,1.712-.2l12.369-29.932a1.53,1.53,0,0,0-2.2-1.9L412.734-334.74A5.174,5.174,0,0,0,411.193-327.286Z" transform="translate(-410.221 346.7)" fill="#4fbbbd"/>
          </g>
        </g>
      </g>
      <g id="Group_117" data-name="Group 117" transform="translate(0.212 -330.698)">
        <path id="Path_2193" data-name="Path 2193" d="M.212-263.318a23.56,23.56,0,0,1,1.4-8.5,18.749,18.749,0,0,1,3.66-6.064,14.417,14.417,0,0,1,5.167-3.624,15.74,15.74,0,0,1,5.992-1.184A13.992,13.992,0,0,1,27.3-278.245q4.053,4.45,4.055,13.706c0,.384-.013.766-.036,1.148s-.06.742-.107,1.077H5.163q.216,6.819,3.373,10.477t10.047,3.66a20.31,20.31,0,0,0,6.028-.717,25.09,25.09,0,0,0,3.229-1.22L28.7-246.1a19.288,19.288,0,0,1-3.767,1.364,23.791,23.791,0,0,1-6.494.789,21.628,21.628,0,0,1-8.325-1.435A14.9,14.9,0,0,1,4.446-249.4a15.889,15.889,0,0,1-3.23-6.136A28.515,28.515,0,0,1,.212-263.318Zm26.336-2.943q-.144-5.813-2.726-9.042a8.838,8.838,0,0,0-7.32-3.229,9.744,9.744,0,0,0-4.485,1,11.389,11.389,0,0,0-3.445,2.691,12.491,12.491,0,0,0-2.3,3.911,16.029,16.029,0,0,0-.969,4.665Z" transform="translate(-0.212 300.419)" fill="#4fbbbd"/>
        <path id="Path_2194" data-name="Path 2194" d="M90.193-282.421a25.162,25.162,0,0,1,4.342.358,13.356,13.356,0,0,1,2.835.718l-.933,4.019a10.4,10.4,0,0,0-2.332-.611,26.667,26.667,0,0,0-4.629-.323,21.908,21.908,0,0,0-4.844.431,13.372,13.372,0,0,0-2.4.718V-244.6H77.563v-35.379a34.413,34.413,0,0,1,4.951-1.615A30.831,30.831,0,0,1,90.193-282.421Z" transform="translate(-36.803 300.29)" fill="#4fbbbd"/>
        <path id="Path_2195" data-name="Path 2195" d="M149.184-248.909a8.13,8.13,0,0,1-1.292.826,20.331,20.331,0,0,1-2.117.969,16.368,16.368,0,0,1-2.87.825,18.585,18.585,0,0,1-3.624.323,19.6,19.6,0,0,1-6.243-1,13.947,13.947,0,0,1-5.275-3.157,15.475,15.475,0,0,1-3.624-5.561,22.346,22.346,0,0,1-1.363-8.288A21.351,21.351,0,0,1,124-271.3a17.283,17.283,0,0,1,3.48-5.849A15.8,15.8,0,0,1,133-281.022a18.493,18.493,0,0,1,7.356-1.4,40.371,40.371,0,0,1,8.288.681q3.122.683,5.131,1.327v33.872q0,8.324-4.306,11.876t-12.989,3.553a35.8,35.8,0,0,1-6.494-.539A35.065,35.065,0,0,1,125-232.906l.933-4.234a21.341,21.341,0,0,0,4.7,1.364,31.593,31.593,0,0,0,5.992.574q6.6,0,9.58-2.547t2.978-8.719Zm-.072-28.274a27.659,27.659,0,0,0-3.157-.682,35.826,35.826,0,0,0-5.526-.323,13.018,13.018,0,0,0-5.346,1.04A11.326,11.326,0,0,0,131.1-274.2a13,13,0,0,0-2.511,4.521,18.414,18.414,0,0,0-.862,5.777,17.531,17.531,0,0,0,1,6.279,12.315,12.315,0,0,0,2.619,4.27,9.764,9.764,0,0,0,3.7,2.4,12.34,12.34,0,0,0,4.234.754,17.125,17.125,0,0,0,5.777-.933,12.989,12.989,0,0,0,4.054-2.153Z" transform="translate(-58.191 300.29)" fill="#4fbbbd"/>
        <path id="Path_2196" data-name="Path 2196" d="M233.182-263.247a24.008,24.008,0,0,1-1.256,7.966,17.763,17.763,0,0,1-3.516,6.1,16.025,16.025,0,0,1-5.346,3.911,16.324,16.324,0,0,1-6.818,1.4,16.314,16.314,0,0,1-6.817-1.4,16.018,16.018,0,0,1-5.347-3.911,17.754,17.754,0,0,1-3.516-6.1,24,24,0,0,1-1.255-7.966,24,24,0,0,1,1.255-7.965,18.163,18.163,0,0,1,3.516-6.135,15.809,15.809,0,0,1,5.347-3.947,16.314,16.314,0,0,1,6.817-1.4,16.324,16.324,0,0,1,6.818,1.4,15.816,15.816,0,0,1,5.346,3.947,18.172,18.172,0,0,1,3.516,6.135A24.018,24.018,0,0,1,233.182-263.247Zm-4.952,0q0-6.959-3.229-11.087a10.531,10.531,0,0,0-8.755-4.127,10.53,10.53,0,0,0-8.755,4.127q-3.229,4.128-3.229,11.087t3.229,11.052a10.563,10.563,0,0,0,8.755,4.091A10.564,10.564,0,0,0,225-252.2Q228.231-256.286,228.23-263.247Z" transform="translate(-94.396 300.419)" fill="#4fbbbd"/>
        <path id="Path_2197" data-name="Path 2197" d="M294.926-316.332a21.258,21.258,0,0,1,4.915.466,10.145,10.145,0,0,1,2.476.826l-.932,4.019a15,15,0,0,0-2.333-.754,16.183,16.183,0,0,0-3.911-.395q-4.951,0-7.068,2.512t-2.117,8.038v3.875h14.926v3.947H285.956v33.154h-4.665v-41.119q0-7.247,3.337-10.908T294.926-316.332Z" transform="translate(-133.177 316.332)" fill="#004969"/>
        <path id="Path_2198" data-name="Path 2198" d="M360.647-263.247a24.008,24.008,0,0,1-1.256,7.966,17.762,17.762,0,0,1-3.516,6.1,16.025,16.025,0,0,1-5.346,3.911,16.325,16.325,0,0,1-6.818,1.4,16.313,16.313,0,0,1-6.817-1.4,16.008,16.008,0,0,1-5.347-3.911,17.755,17.755,0,0,1-3.516-6.1,23.983,23.983,0,0,1-1.256-7.966,23.992,23.992,0,0,1,1.256-7.965,18.163,18.163,0,0,1,3.516-6.135,15.8,15.8,0,0,1,5.347-3.947,16.313,16.313,0,0,1,6.817-1.4,16.325,16.325,0,0,1,6.818,1.4,15.816,15.816,0,0,1,5.346,3.947,18.171,18.171,0,0,1,3.516,6.135A24.017,24.017,0,0,1,360.647-263.247Zm-4.952,0q0-6.959-3.229-11.087a10.531,10.531,0,0,0-8.755-4.127,10.53,10.53,0,0,0-8.755,4.127q-3.229,4.128-3.229,11.087t3.229,11.052a10.563,10.563,0,0,0,8.755,4.091,10.564,10.564,0,0,0,8.755-4.091Q355.695-256.286,355.695-263.247Z" transform="translate(-154.693 300.419)" fill="#004969"/>
        <path id="Path_2199" data-name="Path 2199" d="M415.385-259.654q-1.575,1.874-3.152,3.94t-3.044,4.07a47.863,47.863,0,0,0-2.677,4.054q-1.209,2.054-2.045,3.631h-4.834A93.24,93.24,0,0,1,406-254.093q3.371-4.644,6.89-9.115L400.351-281.06h5.454l9.7,14.049,9.674-14.049h5.1L418-263.407q1.56,1.955,3.344,4.255t3.568,4.777q1.783,2.476,3.456,5.127t3.06,5.289h-5.017q-.854-1.588-2.081-3.485t-2.7-3.958q-1.478-2.061-3.1-4.192T415.385-259.654Z" transform="translate(-189.159 299.647)" fill="#004969"/>
      </g>
    </g>
  </g>
</svg>
