<svg xmlns="http://www.w3.org/2000/svg" viewBox="0 0 566.93 566.93"><defs><style>.cls-1{fill:#004968;}.cls-2{fill:none;stroke:#54bbba;stroke-linecap:round;stroke-linejoin:round;stroke-width:27px;stroke-dasharray:0 54;}.cls-3{fill:#f3d300;}</style></defs><g id="Ebene_24" data-name="Ebene 24"><path class="cls-1" d="M134.2,546.38A45.33,45.33,0,0,1,101.42,502l1.6-93.71c6.82-116.17,45.87-132.15,89.81-143.87,15.4-4.1,26.51-13.49,34.44-24,13-17.17,16-35.35,14.88-58.88l-1.55-31.61a3.1,3.1,0,0,0-2.84-2.94h0c-10.66-.89-19-10.71-18.74-21.93.23-8.61,5.54-15.52,12.82-17.88A9.14,9.14,0,0,0,238,98l-1.2-23.94c.61-21.21,9.27-40.9,24.11-54.74,31-28.85,79.8-25,108.6,8.71l1.88,2.21A85,85,0,0,1,391.5,88l-2.29,20.13a13.25,13.25,0,0,0,6.49,13,21.4,21.4,0,0,1,10.49,19.44c-.5,11.26-9.54,19.67-20.2,18.78h0a2.65,2.65,0,0,0-2.83,2.32L379.47,194c-2.35,20.88-1.59,37,7.83,55,7.13,13.65,18.24,27.38,35.5,35.14,42.82,19.3,80.48,42.1,78.92,159.87L496,548.81a19.17,19.17,0,0,1-18.76,18.13C416.7,568.16,217.69,570.17,134.2,546.38Z"/><path class="cls-2" d="M298.23,230.5h0c-11.54,61.16-8.52,124.77-2.27,187.37,3.44,34.53,5.49,100.09,4.36,134.77"/><path class="cls-3" d="M401.92,219.43c9-9.92,88,3.95,96.59,15l-86.42,87.39,64.66,35.44-150.56,74.4,57-77.44L344,323.88C341.47,321.9,369.23,255.43,401.92,219.43Z"/></g></svg>