<?xml version="1.0" encoding="utf-8"?><svg xmlns="http://www.w3.org/2000/svg" viewBox="0 0 977.46 280.76"><defs><style>.cls-1{fill:#e4e4e4;fill-rule:evenodd;}</style></defs><g id="Ebene_3" data-name="Ebene 3"><g id="g11"><g id="g3208"><path id="path15" class="cls-1" d="M390.56,157h-5.94v39.86h5.94Zm-30.7-38.25V92.35H353.8v26c0,5.32-3.22,8.66-8.17,8.66s-8.3-3.34-8.3-8.66v-26h-6.06v26.37c0,8.17,6.19,13.74,14.36,13.74s14.23-5.57,14.23-13.74m39.74,13.37V92.35h-6.06V120.2L375.21,92.35h-5.57v39.74h6.07v-28l18.32,28Zm16.47-39.74H410v39.74h6.07Zm36.39,0h-6.31L437,121.19l-9.16-28.84h-6.32l13.12,39.74h4.71Zm31,39.74v-5.45H464V114.76h16.59v-5.45H464V97.67h19.44V92.35H458v39.74Zm37.26,0-9.16-17.58a10.56,10.56,0,0,0,7.92-10.65c0-6.68-4.83-11.51-12.38-11.51H491.7v39.74h5.94V115.37h7.56l8.41,16.72Zm-7.3-28.1c0,3.83-2.73,6.19-6.69,6.19h-9V97.67h9c4,0,6.69,2.35,6.69,6.32M553.1,120.7c0-3.35-1-6.19-3.22-8.17-1.6-1.49-3.71-2.35-7.42-3l-4.58-.62a9.16,9.16,0,0,1-4.46-1.86,5,5,0,0,1-1.49-3.71c0-3.47,2.6-6.19,7.31-6.19,3.34,0,6.19.74,8.66,3.09l3.84-3.84c-3.46-3.09-7-4.45-12.38-4.45-8.29,0-13.24,4.7-13.24,11.63,0,3.22.86,5.82,2.84,7.68a13.25,13.25,0,0,0,7.56,3.09l4.7.75c2.35.24,3.34.74,4.33,1.61a5.38,5.38,0,0,1,1.61,4.2c0,3.84-3,6.07-8.17,6.07-4.08,0-7.3-.87-10.27-3.84l-4,4c3.84,3.84,8,5.33,14.12,5.33,8.29,0,14.23-4.46,14.23-11.76m14.12-28.35h-6v39.74h6Zm34.91,5.32V92.35h-28v5.32H585v34.42h6.07V97.67Zm24.26-15.6h-5.2v6.07h5.2Zm-12.13,0h-5.2v6.07h5.2Zm20.67,50L620.32,92.35h-4.83l-14.6,39.74h6.43l2.73-8h15.72l2.72,8ZM624,119H611.78l6.19-17.7Zm37.51-21.29V92.35H633.69v5.32h10.9v34.42h6.06V97.67Zm.86-29.46V62.76H643.1v-12h16.46V45.43H643.1V33.8h19.31V28.35H637V68.21ZM359.24,33.8V28.35h-28V33.8h11V68.21h6.06V33.8Zm32.31,34.41V62.76H372.12v-12h16.59V45.43H372.12V33.8h19.43V28.35H366.18V68.21Zm35.29-12h-6.07c-1,4.09-3.71,6.81-8,6.81a8.35,8.35,0,0,1-5.94-2.35c-2-2.11-2.35-4.46-2.35-12.38S404.8,38,406.78,35.9a7.94,7.94,0,0,1,5.94-2.48c4.34,0,7.06,2.85,8,6.81h6.07C425.47,32.31,420,28,412.72,28a14.57,14.57,0,0,0-10.52,4.33c-3.84,3.84-3.84,8.29-3.84,16s0,12,3.84,16a14.47,14.47,0,0,0,10.52,4.21c7.18,0,12.88-4.34,14.12-12.26m36.27,12V28.35h-5.95v17H441v-17h-6.07V68.21H441V50.75h16.21V68.21Zm40.35,0V28.35h-5.94v28l-18.44-28H473.5V68.21h6.07V40.11L498,68.21Zm16.47-39.86h-6.07V68.21h6.07Zm35.28,28.47c0-3.47-1.12-6.31-3.22-8.17-1.73-1.49-3.71-2.35-7.43-3L540,45.06a9.89,9.89,0,0,1-4.46-1.86A4.6,4.6,0,0,1,534,39.49c0-3.59,2.6-6.19,7.3-6.19,3.35,0,6.19.74,8.67,3.09l3.84-3.83c-3.47-3.22-7.18-4.58-12.38-4.58-8.3,0-13.37,4.82-13.37,11.76a9.79,9.79,0,0,0,3,7.55,14.19,14.19,0,0,0,7.55,3.22l4.7.62c2.36.37,3.35.74,4.34,1.73a5.15,5.15,0,0,1,1.61,4.08c0,3.84-3.1,6.07-8.3,6.07-4.08,0-7.18-.87-10.15-3.71l-4,4c3.71,3.84,8,5.2,14,5.2,8.42,0,14.36-4.34,14.36-11.64m35.15-.62H584.3c-1,4.09-3.71,6.81-8.17,6.81a7.85,7.85,0,0,1-5.82-2.35c-2-2.11-2.48-4.46-2.48-12.38s.5-10.28,2.48-12.38a7.48,7.48,0,0,1,5.82-2.48c4.46,0,7.18,2.85,8,6.81h6.18C589,32.31,583.43,28,576.13,28a14.49,14.49,0,0,0-10.4,4.33c-4,3.84-3.84,8.29-3.84,16s-.12,12,3.84,16a14.39,14.39,0,0,0,10.4,4.21c7.18,0,12.87-4.34,14.23-12.26m36.28,12V28.35h-6.07v17H604.48v-17h-6.07V68.21h6.07V50.75h16.09V68.21ZM426.46,196.83v-5.45H407v-12h16.59v-5.32H407V162.42h19.43V157H401v39.86Zm38.26,0V157h-6.07v28L440.2,157h-5.44v39.86h5.94v-28l18.45,28ZM378.8,157h-6.43l-6.94,28.47L357.51,157h-4.95l-7.92,28.47L337.7,157h-6.43l10.4,39.86H347l8.05-28,8,28h5.33"/><path id="path17" class="cls-1" d="M714.78,241.27c0,2.6-.13,4.95-1.49,6.44a4.89,4.89,0,0,1-3.47,1.36,4.6,4.6,0,0,1-3.34-1.36c-1.48-1.49-1.61-3.84-1.61-6.44s.13-5,1.61-6.31a4.56,4.56,0,0,1,3.34-1.36,4.85,4.85,0,0,1,3.47,1.36c1.36,1.36,1.49,3.84,1.49,6.31m4.7,0c0-3.84-.5-6.81-2.72-9a9.2,9.2,0,0,0-6.94-2.72,9,9,0,0,0-6.93,2.72c-2.23,2.23-2.72,5.2-2.72,9s.49,6.93,2.72,9.16a9,9,0,0,0,6.93,2.72,9.2,9.2,0,0,0,6.94-2.72c2.22-2.23,2.72-5.2,2.72-9.16m16.34-7.55v-3.59h-4.7v-3.34a2.35,2.35,0,0,1,2.6-2.6h2.1V220.1h-3c-4.33,0-6.31,3.22-6.31,6.44v3.59h-2.73v3.59h2.73v19.19h4.58V233.72Zm52.12,5.69h-10.4a6,6,0,0,1,.62-3.09,4.69,4.69,0,0,1,4.58-3,4.81,4.81,0,0,1,4.58,3,10.74,10.74,0,0,1,.62,3.09m4.58,3.22v-2c0-6.56-3.59-11.14-9.78-11.14-5.94,0-9.91,4.33-9.91,11.76,0,8.79,4.71,11.88,10.53,11.88a11,11,0,0,0,8.66-3.59l-3-2.84a7,7,0,0,1-5.69,2.47c-3.72,0-5.82-2.6-5.82-6.56Zm-20.3-17.82v-4.46H749.44v4.46h8.91v28.1h4.95v-28.1Zm43.2,25.13-3.22-3.1a5.22,5.22,0,0,1-4.33,2.23,5.14,5.14,0,0,1-4.34-2.1c-1-1.24-1.36-3-1.36-5.7s.37-4.33,1.36-5.57a5.14,5.14,0,0,1,4.34-2.1,5.21,5.21,0,0,1,4.33,2.22l3.22-3.09a9.3,9.3,0,0,0-7.55-3.22c-5.2,0-10.4,3.1-10.4,11.76s5.2,11.88,10.4,11.88a9.7,9.7,0,0,0,7.55-3.21m70.81-8.67c0,2.6-.25,4.95-1.61,6.44a4.91,4.91,0,0,1-3.47,1.36,4.6,4.6,0,0,1-3.34-1.36c-1.49-1.49-1.61-3.84-1.61-6.44s.12-5,1.61-6.31a4.56,4.56,0,0,1,3.34-1.36,4.86,4.86,0,0,1,3.47,1.36c1.36,1.36,1.61,3.84,1.61,6.31m4.58,0c0-3.84-.5-6.81-2.73-9a9,9,0,0,0-6.93-2.72,9.39,9.39,0,0,0-6.93,2.72c-2.1,2.23-2.72,5.2-2.72,9s.62,6.93,2.72,9.16a9.39,9.39,0,0,0,6.93,2.72,9,9,0,0,0,6.93-2.72c2.23-2.23,2.73-5.2,2.73-9.16m-51.25,11.64v-15c0-5-3-8.42-8-8.42a8.06,8.06,0,0,0-6.06,2.6V220.35h-4.58v32.56h4.58V238.67c0-3.46,2.1-5.07,4.7-5.07s4.7,1.61,4.7,5.07v14.24ZM924,241.27c0,2.6-.12,4.95-1.6,6.44a4.91,4.91,0,0,1-3.47,1.36,4.58,4.58,0,0,1-3.34-1.36c-1.37-1.49-1.61-3.84-1.61-6.44s.24-5,1.61-6.31a4.54,4.54,0,0,1,3.34-1.36,4.86,4.86,0,0,1,3.47,1.36c1.48,1.36,1.6,3.84,1.6,6.31m4.71,0c0-3.84-.62-6.81-2.85-9a10,10,0,0,0-13.74,0c-2.23,2.23-2.72,5.2-2.72,9s.49,6.93,2.72,9.16a10,10,0,0,0,13.74,0c2.23-2.23,2.85-5.2,2.85-9.16m-63.26,11.64V238.05c0-2.6-.49-4.7-2.35-6.43a7.83,7.83,0,0,0-5.7-2.11,8.34,8.34,0,0,0-6.19,2.6v-2.35h-4.45v23.15h4.58V238.8c0-3.59,2.23-5.2,4.83-5.2s4.7,1.61,4.7,5.2v14.11Zm82.57-12c0,3.59-.49,7.3-4.7,7.3s-4.83-3.71-4.83-7.3.62-7.3,4.83-7.3,4.7,3.59,4.7,7.3m4.58,11.88v-23h-4.46v2.47a7,7,0,0,0-6.06-2.72,7.81,7.81,0,0,0-5.57,2c-2.23,2.23-2.6,5.45-2.6,9.41s.37,7.18,2.6,9.41a8.12,8.12,0,0,0,11.51-.62v3c0,3.09-1.61,5.94-5.45,5.94a6.61,6.61,0,0,1-5.07-2.1l-3,3a10.88,10.88,0,0,0,8.17,3.09c6.19,0,9.9-4.08,9.9-9.78m-46.3.13v-4h-2.1c-1.86,0-2.48-1-2.48-2.73V220.35H897v26.12c0,3.47,2,6.44,6.31,6.44Zm71.18-23.15h-5l-5.32,16.34-5.57-16.34h-5l8,22-1.24,3.59c-.74,1.86-1.36,2.48-3.34,2.48h-1.24v4.21h2a6,6,0,0,0,4.71-1.74,6.14,6.14,0,0,0,1.73-2.84ZM507.8,241.89V220.35h-5v21.42c0,4.33-2.6,6.93-6.68,6.93s-6.69-2.6-6.69-6.93V220.35h-5v21.54c0,6.81,5,11.26,11.64,11.26s11.64-4.45,11.64-11.26m26.24,11V238.05c0-2.6-.5-4.7-2.35-6.43a7.85,7.85,0,0,0-5.7-2.11,8.34,8.34,0,0,0-6.19,2.6v-2.35h-4.58v23.15h4.71V238.8c0-3.59,2.23-5.2,4.82-5.2s4.59,1.61,4.59,5.2v14.11Zm12-32.68H541.1v5h4.95Zm42.09,19.18h-10.4a6,6,0,0,1,.62-3.09,5,5,0,0,1,9.16,0,6.07,6.07,0,0,1,.62,3.09m4.58,3.22v-2c0-6.56-3.59-11.14-9.78-11.14-5.94,0-9.78,4.33-9.78,11.76,0,8.79,4.58,11.88,10.4,11.88a10.81,10.81,0,0,0,8.66-3.59l-3-2.84a6.61,6.61,0,0,1-5.57,2.47c-3.84,0-5.94-2.6-5.94-6.56Zm-46.8-12.87h-4.7v23.15h4.7Zm24.76,0h-4.95l-5.45,16.34-5.44-16.34h-5l8.55,23.15h3.83Zm44.44,1.86a6.91,6.91,0,0,0-5.44-2.11,7.87,7.87,0,0,0-6.19,2.72v-2.47h-4.58v23.15h4.7V238.8c0-3.22,2.1-5.2,4.58-5.2a4.22,4.22,0,0,1,3.47,1.61Zm20.55,14.23c0-4.08-2.6-6.19-6.93-6.56l-3.71-.37c-2.36-.12-3.1-1.24-3.1-2.6,0-1.73,1.36-3,4.21-3a8.9,8.9,0,0,1,5.7,1.73l2.84-3c-2.1-1.86-5.07-2.6-8.54-2.6-4.83,0-8.79,2.48-8.79,7.06,0,4.08,2.6,6.06,6.93,6.43l3.72.25c2.23.25,3.09,1.24,3.09,2.72,0,2.23-2.23,3.22-5.07,3.22a8.73,8.73,0,0,1-6.69-2.47l-3.09,3.09c2.72,2.73,5.94,3.34,9.78,3.34,5.44,0,9.65-2.47,9.65-7.3m10.4-25.62h-5v5h5Zm-.12,9.53h-4.71v23.15H646ZM663,252.91v-4h-2c-1.73,0-2.48-1-2.48-2.73v-12.5H663v-3.59h-4.46v-7.06h-4.7v7.06h-2.6v3.59h2.6v12.75c0,3.34,2,6.44,6.31,6.44Zm23.4-23.15h-4.95L676,246.1l-5.45-16.34h-5l8,22-1.24,3.59c-.74,1.86-1.36,2.48-3.34,2.48h-1.24v4.21h1.86a6.29,6.29,0,0,0,4.82-1.74,6.07,6.07,0,0,0,1.61-2.84ZM386.6,239.41H376.2a7.82,7.82,0,0,1,.62-3.09,5,5,0,0,1,4.58-3,4.81,4.81,0,0,1,4.58,3,6,6,0,0,1,.62,3.09m4.71,3.22v-2c0-6.56-3.72-11.14-9.91-11.14-5.94,0-9.78,4.33-9.78,11.76,0,8.79,4.58,11.88,10.4,11.88a10.82,10.82,0,0,0,8.67-3.59l-3-2.84a6.61,6.61,0,0,1-5.57,2.47c-3.84,0-5.95-2.6-5.95-6.56Zm-25.75-22.4h-4.95v5h4.95Zm-.13,9.53h-4.7v23.15h4.7Zm96.19,14.73c0,1.73-.25,2.85-1,3.47-1.24,1.23-2.48,1.36-4.33,1.36-2.85,0-4.21-1.24-4.21-3.35s1.36-3.34,4.08-3.34h5.45Zm4.71,8.42V237.43c0-5.32-3.22-7.92-9.54-7.92-3.83,0-6.19.74-8.29,3.34l3,2.85a5.68,5.68,0,0,1,5.08-2.23c3.71,0,5.07,1.36,5.07,4.33v1.61h-6.06c-5.33,0-8.05,2.85-8.05,6.69a7.36,7.36,0,0,0,1.86,5c1.48,1.49,3.34,2.1,6.19,2.1s4.45-.61,6.18-2.35v2.11Zm-50.14,0V238.05c0-2.6-.5-4.7-2.35-6.43a7.85,7.85,0,0,0-5.7-2.11,8.34,8.34,0,0,0-6.19,2.6v-2.35h-4.58v23.15h4.71V238.8c0-3.59,2.23-5.2,4.82-5.2s4.59,1.61,4.59,5.2v14.11Zm25.87,0V238.05c0-2.6-.49-4.7-2.23-6.43a7.82,7.82,0,0,0-5.69-2.11,8.34,8.34,0,0,0-6.19,2.6v-2.35h-4.58v23.15H428V238.8c0-3.59,2.23-5.2,4.83-5.2s4.7,1.61,4.7,5.2v14.11Zm-85.29-32.56h-5.2L344.14,244l-7.55-23.64h-5.07l10.64,32.56H346"/><path class="cls-1" d="M280.64,28.1a28,28,0,0,0-28-28.1H28.06A28,28,0,0,0,0,28.1L0,252.66a28.13,28.13,0,0,0,28.08,28.1H252.66a28.16,28.16,0,0,0,28.1-28.1ZM71.3,252.54h-8l-9.06-30-9.09,30h-8l-13.18-49.4H33.93l7.64,31.07,9-31.07h7.22l9,31.07,7.67-31.07h10Zm18.2-86h-30V66.85h30Zm28,85.42h-9.66v-49.4h9.66Zm8.91-193.74H21.59v-30h104.8Zm56.7,153h-22.9V222.7h19.43v8.67H160.19v12h22.9v8.54H150.53v-49.4h32.56Zm8.66-43.95-1.61-.12a55.75,55.75,0,0,1-49.88-55.58V28.22h30.45l-.12,82.57c0,12.14,8.41,23,19.68,25.88a5.46,5.46,0,0,0,1.48.24Zm9,0V136.91c.5-.12.74-.12,1.24-.24,11.26-2.85,19.68-13.74,19.68-25.88l-.25-82.57H252v83.07a56.19,56.19,0,0,1-50,55.83Zm51.37,84.68h-8.54l-19.56-30.33v30.33h-9.65v-49.4H223l19.56,30.33V202.52h9.65Z"/></g></g></g></svg>