<svg xmlns="http://www.w3.org/2000/svg" viewBox="0 0 379 182" width="379" height="182">
	<style>
		tspan { white-space:pre }
		.shp0 { fill: #ffffff } 
		.shp1 { fill: #004b70 } 
	</style>
	<g id="Ebene_25">
		<g id="Gruppe_208">
			<path id="Pfad_2334" class="shp0" d="M77 47.06L262.15 55.06C273.64 55.55 281.85 54.43 287.9 46.7C293.95 38.97 295.09 33.89 296.76 19.18C298.62 2.79 315.18 4.18 315.18 4.18C315.18 4.18 97.84 -1.25 81.6 0.18C64.24 1.76 48 7.39 47.76 21.3C47.52 35.21 61.55 46.39 77 47.06Z" />
			<path id="Pfad_2335" class="shp0" d="M238.32 91.25C208.65 90.65 97.49 87.72 97.49 87.72C80.7 86.9 45.27 90.31 24.94 109.23C7.65 125.32 -25.95 167.76 37.72 170.85L266.12 181.93C266.12 181.93 373.72 179.63 378.75 90.14C382.21 28.8 348.51 6.68 315.22 4.3C306.78 3.69 301.06 11.59 299.86 22.94C298.66 34.29 298 39.63 292.13 58.44C283.42 86.11 268.53 91.86 238.32 91.25Z" />
			<path id="Pfad_2336" class="shp1" d="M248.46 45.54L84.07 39.81C82.69 39.76 81.32 39.44 80.06 38.87C78.8 38.29 77.67 37.47 76.72 36.46C75.78 35.45 75.04 34.26 74.56 32.96C74.07 31.66 73.84 30.28 73.89 28.9L73.89 28.9C73.96 27.55 74.26 26.23 74.79 24.99C75.31 23.74 76.05 22.6 76.96 21.61C77.88 20.62 78.96 19.8 80.16 19.19C81.36 18.57 82.66 18.17 84 18L251.15 26.15C255.97 27.23 259.58 29.54 259.38 35.36L259.38 35.36C259.33 36.75 259.01 38.11 258.44 39.37C257.86 40.63 257.04 41.77 256.03 42.71C255.02 43.66 253.83 44.4 252.53 44.88C251.23 45.37 249.85 45.59 248.46 45.54L248.46 45.54Z" />
		</g>
	</g>
</svg>